<svg width="300" height="100" viewBox="0 0 300 100" fill="none" xmlns="http://www.w3.org/2000/svg">
	
	<circle cx="25" cy="25" r="25" fill="#2E7D32"/>


		<path d="M18.4741 29.8435C18.4741 35.7628 22.1602 38.685 21.086 42.3564" stroke="black" stroke-linecap="round"/>
		<path d="M9.92484 1.55885C11.8192 2.45799 17.1864 5.08047 22.159 6.12946" stroke="black" stroke-linecap="round"/>
		<path d="M25.398 38.8155C27.204 33.4335 22.369 30.9504 21.984 23.8492" stroke="black"/>
		<path d="M22.0121 24.2988C22.2742 20.7023 16.5085 18.2296 13.8877 22.7253" stroke="black"/>
		<path d="M17.386 20.4593C17.4227 24.052 16.371 27.2568 22.2942 26.8326" stroke="black"/>
		<path d="M21.6208 42.6312C21.8678 42.5277 21.9754 42.2328 21.8611 41.9727C21.7468 41.7125 21.4539 41.5856 21.2068 41.6892L21.4138 42.1602L21.6208 42.6312ZM21.4138 42.1602L21.2068 41.6892C20.7426 41.8838 20.3956 42.3621 20.1461 42.8781C19.8863 43.4156 19.6873 44.0878 19.5682 44.805C19.3328 46.2226 19.3911 47.9369 20.0356 49.2356L20.4722 49.025L20.9087 48.8144C20.4045 47.7983 20.323 46.3362 20.5402 45.0281C20.6475 44.3824 20.8229 43.8045 21.0337 43.3685C21.2548 42.911 21.4744 42.6926 21.6208 42.6312L21.4138 42.1602Z" fill="black"/>
		<path d="M13.9837 22.4227C12.9837 24.1108 8.44521 25.4216 4.98367 21.4227" stroke="black" stroke-linecap="round"/>
		<path d="M4.98368 21.4227C4.28833 20.9114 3.80897 20.4227 1.98367 20.4227" stroke="black"/>
		<path d="M2.48365 20.4227C-1.10639 20.0799 0.983684 18.9227 2.48367 17.9227" stroke="black" stroke-linecap="round"/>
		<path d="M2.36474 17.9299C6.52218 14.6112 13.5254 12.5809 15.6938 14.3042" stroke="black"/>
		<path d="M15.6382 14.2585C19.3461 16.9221 20.0885 13.8089 20.3086 11.9357" stroke="black"/>
		<path d="M20.3187 12.0106C21.0093 8.7887 10.872 6.42915 8.2673 3.35711" stroke="black"/>
		<path d="M8.34624 3.43205C8.34624 3.43205 2.979 -1.66305 9.92484 1.55884" stroke="black"/>
		<path d="M28.8853 4.94776C29.1561 5.00207 29.4196 4.82662 29.4739 4.55588C29.5282 4.28513 29.3528 4.02161 29.082 3.96729L28.9837 4.45752L28.8853 4.94776ZM21.9837 6.15148L21.7312 6.58302C22.3962 6.9722 23.1079 6.98358 23.7818 6.83267C24.4443 6.68432 25.113 6.36969 25.7317 6.05567C26.372 5.73073 26.9523 5.41059 27.513 5.18649C28.0744 4.96212 28.5231 4.87509 28.8853 4.94776L28.9837 4.45752L29.082 3.96729C28.4297 3.83642 27.7571 4.01202 27.1418 4.25791C26.5259 4.50408 25.8744 4.86185 25.2791 5.16394C24.6624 5.47695 24.0919 5.73846 23.5633 5.85684C23.0461 5.97266 22.6146 5.94137 22.2362 5.71993L21.9837 6.15148Z" fill="black"/>
		<path d="M20.4837 48.9227C21.4837 50.9227 23.4837 51.7646 25.9837 50.8581" stroke="black" stroke-linecap="round"/>
		<path d="M21.4696 42.1317C22.6972 41.2325 25.3827 40.1835 25.3827 38.685" stroke="black"/>
		<path d="M26.8842 46.6621C26.5783 45.1121 25.0619 44.9396 24.8581 43.9068" stroke="black" stroke-linecap="round"/>
		<path d="M26.9267 46.7452C27.1568 47.7942 26.1499 48.5005 25.1525 47.2268" stroke="black" stroke-linecap="round"/>
		<path d="M43.4933 29.8435C43.4933 35.7628 39.8072 38.685 40.8814 42.3564" stroke="black" stroke-linecap="round"/>
		<path d="M52.0425 1.55885C50.1482 2.45799 44.7809 5.08047 39.8084 6.12946" stroke="black" stroke-linecap="round"/>
		<path d="M36.5693 38.8155C34.7634 33.4335 39.5984 30.9503 39.9834 23.8492" stroke="black"/>
		<path d="M39.9553 24.2988C39.6932 20.7023 45.4589 18.2296 48.0797 22.7253" stroke="black"/>
		<path d="M44.5813 20.4593C44.5447 24.052 45.5963 27.2568 39.6731 26.8326" stroke="black"/>
		<path d="M40.3466 42.6312C40.0995 42.5276 39.9919 42.2328 40.1062 41.9726C40.2205 41.7125 40.5135 41.5856 40.7606 41.6891L40.5536 42.1602L40.3466 42.6312ZM40.5536 42.1602L40.7606 41.6891C41.2248 41.8838 41.5718 42.3621 41.8212 42.8781C42.081 43.4155 42.28 44.0877 42.3991 44.8049C42.6346 46.2226 42.5763 47.9369 41.9317 49.2356L41.4952 49.025L41.0586 48.8144C41.5629 47.7983 41.6444 46.3362 41.4271 45.0281C41.3199 44.3824 41.1444 43.8045 40.9336 43.3684C40.7125 42.911 40.4929 42.6926 40.3466 42.6312L40.5536 42.1602Z" fill="black"/>
		<path d="M47.9837 22.4227C48.9837 24.1108 53.5221 25.4216 56.9837 21.4227" stroke="black" stroke-linecap="round"/>
		<path d="M56.9837 21.4227C57.679 20.9114 58.1584 20.4227 59.9837 20.4227" stroke="black"/>
		<path d="M59.4837 20.4227C63.0737 20.0799 60.9837 18.9227 59.4837 17.9227" stroke="black" stroke-linecap="round"/>
		<path d="M59.6026 17.9299C55.4452 14.6112 48.4419 12.5809 46.2735 14.3042" stroke="black"/>
		<path d="M46.3292 14.2585C42.6212 16.9221 41.8788 13.8089 41.6588 11.9357" stroke="black"/>
		<path d="M41.6486 12.0106C40.9581 8.7887 51.0954 6.42915 53.7 3.35711" stroke="black"/>
		<path d="M53.6211 3.43205C53.6211 3.43205 58.9883 -1.66305 52.0425 1.55884" stroke="black"/>
		<path d="M33.082 4.94776C32.8113 5.00207 32.5478 4.82662 32.4934 4.55588C32.4391 4.28513 32.6146 4.02161 32.8853 3.96729L32.9837 4.45752L33.082 4.94776ZM39.9837 6.15148L40.2362 6.58302C39.5711 6.9722 38.8594 6.98358 38.1855 6.83267C37.523 6.68432 36.8544 6.36969 36.2356 6.05567C35.5954 5.73073 35.0151 5.41059 34.4544 5.18649C33.893 4.96212 33.4442 4.87509 33.082 4.94776L32.9837 4.45752L32.8853 3.96729C33.5377 3.83642 34.2103 4.01202 34.8255 4.25791C35.4414 4.50408 36.093 4.86185 36.6882 5.16394C37.305 5.47695 37.8754 5.73846 38.404 5.85684C38.9213 5.97266 39.3527 5.94137 39.7312 5.71993L39.9837 6.15148Z" fill="black"/>
		<path d="M41.4837 48.9227C40.4837 50.9227 38.4837 51.7646 35.9837 50.858" stroke="black" stroke-linecap="round"/>
		<path d="M40.4977 42.1316C39.2701 41.2325 36.5847 40.1835 36.5847 38.6849" stroke="black"/>
		<path d="M35.0832 46.662C35.389 45.1121 36.9054 44.9396 37.1092 43.9067" stroke="black" stroke-linecap="round"/>
		<path d="M35.0407 46.7452C34.8105 47.7942 35.8174 48.5005 36.8149 47.2267" stroke="black" stroke-linecap="round"/>
	


	<text x="52" y="25" font-family="Segoe UI, Arial, sans-serif" font-size="28" font-weight="700" fill="#2E7D32">Agro</text>
	<text x="122" y="25" font-family="Segoe UI, Arial, sans-serif" font-size="28" font-weight="700" fill="#1F2933">Manager</text>
	<text x="54" y="50" font-family="Segoe UI, Arial, sans-serif" font-size="14" font-weight="600" fill="#6B7280">Gestão para Agropecuária</text>
	
</svg>
