<svg xmlns="http://www.w3.org/2000/svg" width="420" height="220" viewBox="0 0 420 220" fill="none">
  <rect width="420" height="220" rx="20" fill="#F8FAFC"/>

  <g transform="translate(30 26)">
    <text x="70" y="24" text-anchor="middle" font-family="Inter, Arial, sans-serif" font-size="14" fill="#0F172A">Bovino (ref.)</text>
    <rect x="0" y="36" width="140" height="140" rx="18" fill="#E5E7EB"/>
    <g transform="translate(38 62)" stroke="#030712" stroke-width="2.8" stroke-linecap="round" stroke-linejoin="round">
      <path d="M11 24c2-5 7-8 13-9" />
      <path d="M53 24c-2-5-7-8-13-9" />
      <path d="M16 20 8 16c-1 4 1 8 5 11" />
      <path d="M48 20 56 16c1 4-1 8-5 11" />
      <path d="M24 16h16c3 0 5 2 5 5" />
      <path d="M24 16c-3 0-5 2-5 5" />
      <path d="M19 27v15c0 6 4 10 9 10h8c5 0 9-4 9-10V27" />
      <rect x="24" y="48" width="16" height="8" rx="4" ry="4" />
      <path d="M26 44c0-2 2-4 4-4" />
      <path d="M38 44c0-2-2-4-4-4" />
    </g>
  </g>

  <g transform="translate(250 26)">
    <text x="70" y="24" text-anchor="middle" font-family="Inter, Arial, sans-serif" font-size="14" fill="#0F172A">Suíno (ref.)</text>
    <rect x="0" y="36" width="140" height="140" rx="18" fill="#E5E7EB"/>
    <g transform="translate(38 62)" stroke="#030712" stroke-width="2.8" stroke-linecap="round" stroke-linejoin="round">
      <path d="M18 24c0-8 6-14 14-14s14 6 14 14" />
      <path d="M20 17 14 12v7l4 4" />
      <path d="M44 17 50 12v7l-4 4" />
      <path d="M19 27v10c0 9 6 15 13 15s13-6 13-15V27" />
      <path d="M24 31c1 2 3 3 5 3" />
      <path d="M40 31c-1 2-3 3-5 3" />
      <ellipse cx="32" cy="41" rx="8" ry="6" />
      <circle cx="29" cy="41" r="1.3" fill="#030712" stroke="none" />
      <circle cx="35" cy="41" r="1.3" fill="#030712" stroke="none" />
      <path d="M29 47c1 1 2 1.5 3 1.5s2-.5 3-1.5" />
    </g>
  </g>
</svg>
