<svg xmlns="http://www.w3.org/2000/svg" width="420" height="220" viewBox="0 0 420 220" fill="none">
  <rect width="420" height="220" rx="20" fill="#F8FAFC"/>
  <g transform="translate(30 26)">
    <text x="70" y="24" text-anchor="middle" font-family="Inter, Arial, sans-serif" font-size="14" fill="#0F172A">Bovino (frontal)</text>
    <rect x="0" y="36" width="140" height="140" rx="18" fill="#DCFCE7"/>
    <g transform="translate(38 62)" stroke="#166534" stroke-width="2.8" stroke-linecap="round" stroke-linejoin="round">
      <path d="M12 24 5 18" />
      <path d="M52 24 59 18" />
      <path d="M15 26c0-9 7-16 17-16s17 7 17 16" />
      <path d="M18 27h28c4 0 7 3 7 7v7c0 4-3 7-7 7h-6l-8 6-8-6h-6c-4 0-7-3-7-7v-7c0-4 3-7 7-7z" />
      <circle cx="25" cy="35" r="2" fill="#166534" stroke="none" />
      <circle cx="39" cy="35" r="2" fill="#166534" stroke="none" />
      <path d="M26 42c2 2 4 3 6 3s4-1 6-3" />
      <path d="M29 27 22 20" />
      <path d="M35 27 42 20" />
    </g>
  </g>

  <g transform="translate(250 26)">
    <text x="70" y="24" text-anchor="middle" font-family="Inter, Arial, sans-serif" font-size="14" fill="#0F172A">Suíno (frontal)</text>
    <rect x="0" y="36" width="140" height="140" rx="18" fill="#FCE7F3"/>
    <g transform="translate(38 62)" stroke="#9D174D" stroke-width="2.8" stroke-linecap="round" stroke-linejoin="round">
      <path d="M15 24c0-8 8-14 17-14s17 6 17 14" />
      <path d="M16 26h32c4 0 7 3 7 7v7c0 4-3 7-7 7h-7l-9 7-9-7h-7c-4 0-7-3-7-7v-7c0-4 3-7 7-7z" />
      <circle cx="24" cy="34" r="2" fill="#9D174D" stroke="none" />
      <circle cx="40" cy="34" r="2" fill="#9D174D" stroke="none" />
      <rect x="25" y="39" width="14" height="8" rx="4" ry="4" />
      <circle cx="30" cy="43" r="1.2" fill="#9D174D" stroke="none" />
      <circle cx="34" cy="43" r="1.2" fill="#9D174D" stroke="none" />
      <path d="M21 25c-2-4-5-6-9-6" />
      <path d="M43 25c2-4 5-6 9-6" />
    </g>
  </g>
</svg>
