<svg width="283" height="62" viewBox="0 0 283 62" fill="none" xmlns="http://www.w3.org/2000/svg">
<rect width="283" height="62" fill="white"/>
<circle cx="31.734" cy="31" r="31" fill="#2E7D32"/>
<circle cx="31.734" cy="31" r="27" fill="white"/>
<path d="M8.35846 7.21915C9.73398 9 10.6923 8.28829 13.3585 11.2192" stroke="white" stroke-width="2"/>
<path d="M53.8527 8.14843C52.4772 9.92928 51.5189 9.21757 48.8527 12.1484" stroke="white" stroke-width="2"/>
<path d="M57.734 24C58.234 25.5 60.734 27 60.734 27" stroke="white" stroke-width="2"/>
<path d="M6.18922 23.8276C5.7651 25.3656 2.73398 26.6 2.73398 26.6" stroke="white" stroke-width="2"/>
<path d="M19.2244 36.4207C19.2244 42.3401 22.9105 45.2622 21.8363 48.9337" stroke="black" stroke-width="2.5" stroke-linecap="round"/>
<path d="M10.6751 8.13614C12.5695 9.03527 17.9367 11.6578 22.9093 12.7067" stroke="black" stroke-width="2.5" stroke-linecap="round"/>
<path d="M26.1483 45.3928C27.9543 40.0108 23.1193 37.5276 22.7343 30.4265" stroke="black" stroke-width="2.5"/>
<path d="M22.7624 30.8761C23.0245 27.2795 17.2588 24.8069 14.638 29.3026" stroke="black" stroke-width="2.5"/>
<path d="M18.1363 27.0366C18.173 30.6293 17.1213 33.8341 23.0446 33.4099" stroke="black" stroke-width="2.5"/>
<path d="M22.6816 49.9151C23.2992 49.6561 23.5682 48.919 23.2824 48.2686C22.9967 47.6183 22.2643 47.301 21.6466 47.5599L22.1641 48.7375L22.6816 49.9151ZM22.1641 48.7375L21.6466 47.5599C20.944 47.8545 20.5014 48.5277 20.2307 49.0877C19.9342 49.7012 19.7175 50.444 19.5895 51.2149C19.3404 52.7147 19.3814 54.6181 20.1311 56.1288L21.2225 55.6023L22.3139 55.0758C21.9148 54.2716 21.816 52.9987 22.0196 51.7728C22.1179 51.1807 22.2757 50.6734 22.4497 50.3135C22.6495 49.9 22.7736 49.8765 22.6816 49.9151L22.1641 48.7375Z" fill="black"/>
<path d="M14.734 29C13.734 30.6881 9.19552 31.9988 5.73398 28" stroke="black" stroke-width="2.5" stroke-linecap="round"/>
<path d="M5.73399 28C5.03864 27.4887 4.55928 27 2.73398 27" stroke="black" stroke-width="2.5"/>
<path d="M3.23396 27C-0.356089 26.6571 1.73399 25.5 3.23398 24.5" stroke="black" stroke-width="2.5" stroke-linecap="round"/>
<path d="M3.11505 24.5072C7.27248 21.1885 14.2757 19.1582 16.4441 20.8815" stroke="black" stroke-width="2.5"/>
<path d="M16.3885 20.8357C20.0964 23.4994 20.8388 20.3862 21.0589 18.513" stroke="black" stroke-width="2.5"/>
<path d="M21.069 18.5879C21.7596 15.366 11.6223 13.0064 9.0176 9.93439" stroke="black" stroke-width="2.5"/>
<path d="M9.09655 10.0093C9.09655 10.0093 3.72931 4.91423 10.6751 8.13613" stroke="black" stroke-width="2.5"/>
<path d="M29.4881 12.2604C30.165 12.3962 30.8238 11.9576 30.9596 11.2807C31.0954 10.6038 30.6567 9.94503 29.9799 9.80923L29.734 11.0348L29.4881 12.2604ZM22.734 12.7288L22.1027 13.8076C22.9828 14.3226 23.9046 14.3191 24.696 14.1418C25.4589 13.971 26.2012 13.6165 26.8214 13.3018C27.4954 12.9597 28.0223 12.6678 28.5416 12.4602C29.0626 12.252 29.3435 12.2314 29.4881 12.2604L29.734 11.0348L29.9799 9.80923C29.1099 9.6347 28.2694 9.87673 27.6138 10.1388C26.9564 10.4015 26.2515 10.7875 25.69 11.0724C25.0747 11.3847 24.578 11.6064 24.1497 11.7023C23.75 11.7918 23.5287 11.7455 23.3653 11.6499L22.734 12.7288Z" fill="black"/>
<path d="M21.234 55.5C22.234 57.5 24.234 58.3419 26.734 57.4353" stroke="black" stroke-width="2.5" stroke-linecap="round"/>
<path d="M22.2199 48.7089C23.4475 47.8098 26.133 46.7608 26.133 45.2623" stroke="black" stroke-width="2.5"/>
<path d="M27.6345 53.2393C27.3286 51.6894 25.8122 51.5169 25.6084 50.484" stroke="black" stroke-width="2.5" stroke-linecap="round"/>
<path d="M27.677 53.3225C27.9071 54.3715 26.9002 55.0778 25.9028 53.804" stroke="black" stroke-width="2.5" stroke-linecap="round"/>
<path d="M44.2436 36.4207C44.2436 42.3401 40.5575 45.2622 41.6317 48.9337" stroke="black" stroke-width="2.5" stroke-linecap="round"/>
<path d="M52.7928 8.13614C50.8985 9.03527 45.5313 11.6578 40.5587 12.7067" stroke="black" stroke-width="2.5" stroke-linecap="round"/>
<path d="M37.3196 45.3928C35.5137 40.0107 40.3487 37.5276 40.7337 30.4265" stroke="black" stroke-width="2.5"/>
<path d="M40.7056 30.8761C40.4435 27.2795 46.2092 24.8069 48.83 29.3026" stroke="black" stroke-width="2.5"/>
<path d="M45.3316 27.0366C45.295 30.6293 46.3466 33.8341 40.4234 33.4099" stroke="black" stroke-width="2.5"/>
<path d="M40.7864 49.915C40.1687 49.6561 39.8997 48.919 40.1855 48.2686C40.4713 47.6183 41.2037 47.301 41.8213 47.5599L41.3039 48.7375L40.7864 49.915ZM41.3039 48.7375L41.8213 47.5599C42.524 47.8544 42.9665 48.5277 43.2372 49.0877C43.5338 49.7011 43.7505 50.444 43.8785 51.2149C44.1276 52.7147 44.0866 54.6181 43.3369 56.1288L42.2455 55.6023L41.1541 55.0758C41.5532 54.2716 41.652 52.9986 41.4484 51.7727C41.35 51.1807 41.1923 50.6734 41.0183 50.3135C40.8184 49.9 40.6944 49.8765 40.7864 49.915L41.3039 48.7375Z" fill="black"/>
<path d="M48.734 29C49.734 30.6881 54.2724 31.9988 57.734 28" stroke="black" stroke-width="2.5" stroke-linecap="round"/>
<path d="M57.734 28C58.4293 27.4887 58.9087 27 60.734 27" stroke="black" stroke-width="2.5"/>
<path d="M60.234 27C63.824 26.6571 61.734 25.5 60.234 24.5" stroke="black" stroke-width="2.5" stroke-linecap="round"/>
<path d="M60.3529 24.5072C56.1955 21.1885 49.1922 19.1582 47.0238 20.8815" stroke="black" stroke-width="2.5"/>
<path d="M47.0795 20.8357C43.3715 23.4994 42.6291 20.3862 42.4091 18.513" stroke="black" stroke-width="2.5"/>
<path d="M42.3989 18.5879C41.7084 15.366 51.8457 13.0064 54.4504 9.93439" stroke="black" stroke-width="2.5"/>
<path d="M54.3714 10.0093C54.3714 10.0093 59.7386 4.91423 52.7928 8.13613" stroke="black" stroke-width="2.5"/>
<path d="M33.9799 12.2604C33.303 12.3962 32.6442 11.9576 32.5084 11.2807C32.3726 10.6038 32.8112 9.94503 33.4881 9.80923L33.734 11.0348L33.9799 12.2604ZM40.734 12.7288L41.3653 13.8076C40.4852 14.3226 39.5634 14.3191 38.7719 14.1418C38.0091 13.971 37.2668 13.6165 36.6465 13.3018C35.9725 12.9597 35.4456 12.6678 34.9263 12.4602C34.4053 12.252 34.1244 12.2314 33.9799 12.2604L33.734 11.0348L33.4881 9.80923C34.3581 9.6347 35.1986 9.87673 35.8542 10.1388C36.5115 10.4015 37.2165 10.7875 37.7779 11.0724C38.3932 11.3847 38.89 11.6064 39.3182 11.7023C39.7179 11.7918 39.9392 11.7455 40.1027 11.6499L40.734 12.7288Z" fill="black"/>
<path d="M42.234 55.5C41.234 57.5 39.234 58.3418 36.734 57.4353" stroke="black" stroke-width="2.5" stroke-linecap="round"/>
<path d="M41.248 48.7089C40.0204 47.8098 37.335 46.7608 37.335 45.2622" stroke="black" stroke-width="2.5"/>
<path d="M35.8335 53.2393C36.1393 51.6894 37.6557 51.5169 37.8595 50.484" stroke="black" stroke-width="2.5" stroke-linecap="round"/>
<path d="M35.791 53.3225C35.5608 54.3715 36.5677 55.0778 37.5652 53.804" stroke="black" stroke-width="2.5" stroke-linecap="round"/>
<path d="M74.7681 31H69.4953L77.5294 7.72727H83.8703L91.8931 31H86.6203L80.7908 13.0455H80.609L74.7681 31ZM74.4385 21.8523H86.8931V25.6932H74.4385V21.8523ZM101.654 37.9091C100.086 37.9091 98.7416 37.6932 97.6203 37.2614C96.5067 36.8371 95.6203 36.2576 94.9613 35.5227C94.3022 34.7879 93.8741 33.9621 93.6772 33.0455L98.1544 32.4432C98.2908 32.7917 98.5067 33.1174 98.8022 33.4205C99.0976 33.7235 99.4878 33.9659 99.9726 34.1477C100.465 34.3371 101.064 34.4318 101.768 34.4318C102.821 34.4318 103.689 34.1742 104.37 33.6591C105.06 33.1515 105.404 32.2992 105.404 31.1023V27.9091H105.2C104.988 28.3939 104.67 28.8523 104.245 29.2841C103.821 29.7159 103.276 30.0682 102.609 30.3409C101.942 30.6136 101.147 30.75 100.223 30.75C98.912 30.75 97.7188 30.447 96.6431 29.8409C95.5749 29.2273 94.7226 28.2917 94.0863 27.0341C93.4575 25.7689 93.1431 24.1705 93.1431 22.2386C93.1431 20.2614 93.465 18.6098 94.109 17.2841C94.7529 15.9583 95.609 14.9659 96.6772 14.3068C97.7529 13.6477 98.9309 13.3182 100.211 13.3182C101.189 13.3182 102.007 13.4848 102.666 13.8182C103.325 14.1439 103.855 14.553 104.257 15.0455C104.666 15.5303 104.98 16.0076 105.2 16.4773H105.382V13.5455H110.189V31.1705C110.189 32.6553 109.825 33.8977 109.098 34.8977C108.37 35.8977 107.363 36.6477 106.075 37.1477C104.795 37.6553 103.321 37.9091 101.654 37.9091ZM101.757 27.1136C102.537 27.1136 103.196 26.9205 103.734 26.5341C104.279 26.1402 104.696 25.5795 104.984 24.8523C105.279 24.1174 105.427 23.2386 105.427 22.2159C105.427 21.1932 105.283 20.3068 104.995 19.5568C104.707 18.7992 104.291 18.2121 103.745 17.7955C103.2 17.3788 102.537 17.1705 101.757 17.1705C100.961 17.1705 100.291 17.3864 99.7453 17.8182C99.1999 18.2424 98.787 18.8333 98.5067 19.5909C98.2264 20.3485 98.0863 21.2235 98.0863 22.2159C98.0863 23.2235 98.2264 24.0947 98.5067 24.8295C98.7946 25.5568 99.2075 26.1212 99.7453 26.5227C100.291 26.9167 100.961 27.1136 101.757 27.1136ZM114.041 31V13.5455H118.734V16.5909H118.916C119.234 15.5076 119.768 14.6894 120.518 14.1364C121.268 13.5758 122.132 13.2955 123.109 13.2955C123.351 13.2955 123.613 13.3106 123.893 13.3409C124.173 13.3712 124.42 13.4129 124.632 13.4659V17.7614C124.404 17.6932 124.09 17.6326 123.689 17.5795C123.287 17.5265 122.92 17.5 122.586 17.5C121.874 17.5 121.238 17.6553 120.677 17.9659C120.124 18.2689 119.685 18.6932 119.359 19.2386C119.041 19.7841 118.882 20.4129 118.882 21.125V31H114.041ZM134.208 31.3409C132.443 31.3409 130.917 30.9659 129.629 30.2159C128.349 29.4583 127.36 28.4053 126.663 27.0568C125.966 25.7008 125.618 24.1288 125.618 22.3409C125.618 20.5379 125.966 18.9621 126.663 17.6136C127.36 16.2576 128.349 15.2045 129.629 14.4545C130.917 13.697 132.443 13.3182 134.208 13.3182C135.974 13.3182 137.496 13.697 138.777 14.4545C140.064 15.2045 141.057 16.2576 141.754 17.6136C142.451 18.9621 142.799 20.5379 142.799 22.3409C142.799 24.1288 142.451 25.7008 141.754 27.0568C141.057 28.4053 140.064 29.4583 138.777 30.2159C137.496 30.9659 135.974 31.3409 134.208 31.3409ZM134.231 27.5909C135.034 27.5909 135.705 27.3636 136.243 26.9091C136.78 26.447 137.186 25.8182 137.458 25.0227C137.739 24.2273 137.879 23.322 137.879 22.3068C137.879 21.2917 137.739 20.3864 137.458 19.5909C137.186 18.7955 136.78 18.1667 136.243 17.7045C135.705 17.2424 135.034 17.0114 134.231 17.0114C133.421 17.0114 132.739 17.2424 132.186 17.7045C131.64 18.1667 131.227 18.7955 130.947 19.5909C130.674 20.3864 130.538 21.2917 130.538 22.3068C130.538 23.322 130.674 24.2273 130.947 25.0227C131.227 25.8182 131.64 26.447 132.186 26.9091C132.739 27.3636 133.421 27.5909 134.231 27.5909Z" fill="#2E7D32"/>
<path d="M146.038 7.72727H152.106L158.515 23.3636H158.788L165.197 7.72727H171.265V31H166.493V15.8523H166.299L160.277 30.8864H157.027L151.004 15.7955H150.811V31H146.038V7.72727ZM180.206 31.3295C179.092 31.3295 178.1 31.1364 177.228 30.75C176.357 30.3561 175.668 29.7765 175.16 29.0114C174.66 28.2386 174.41 27.2765 174.41 26.125C174.41 25.1553 174.588 24.3409 174.944 23.6818C175.3 23.0227 175.785 22.4924 176.399 22.0909C177.012 21.6894 177.709 21.3864 178.49 21.1818C179.278 20.9773 180.103 20.8333 180.967 20.75C181.982 20.6439 182.8 20.5455 183.421 20.4545C184.043 20.3561 184.493 20.2121 184.774 20.0227C185.054 19.8333 185.194 19.553 185.194 19.1818V19.1136C185.194 18.3939 184.967 17.8371 184.512 17.4432C184.065 17.0492 183.429 16.8523 182.603 16.8523C181.732 16.8523 181.039 17.0455 180.524 17.4318C180.009 17.8106 179.668 18.2879 179.501 18.8636L175.024 18.5C175.251 17.4394 175.698 16.5227 176.365 15.75C177.031 14.9697 177.891 14.3712 178.944 13.9545C180.005 13.5303 181.232 13.3182 182.626 13.3182C183.596 13.3182 184.524 13.4318 185.41 13.6591C186.304 13.8864 187.096 14.2386 187.785 14.7159C188.482 15.1932 189.031 15.8068 189.433 16.5568C189.834 17.2992 190.035 18.1894 190.035 19.2273V31H185.444V28.5795H185.308C185.028 29.125 184.653 29.6061 184.183 30.0227C183.713 30.4318 183.149 30.7538 182.49 30.9886C181.831 31.2159 181.069 31.3295 180.206 31.3295ZM181.592 27.9886C182.304 27.9886 182.933 27.8485 183.478 27.5682C184.024 27.2803 184.452 26.8939 184.762 26.4091C185.073 25.9242 185.228 25.375 185.228 24.7614V22.9091C185.077 23.0076 184.868 23.0985 184.603 23.1818C184.346 23.2576 184.054 23.3295 183.728 23.3977C183.403 23.4583 183.077 23.5152 182.751 23.5682C182.425 23.6136 182.13 23.6553 181.865 23.6932C181.296 23.7765 180.8 23.9091 180.376 24.0909C179.952 24.2727 179.622 24.5189 179.387 24.8295C179.153 25.1326 179.035 25.5114 179.035 25.9659C179.035 26.625 179.274 27.1288 179.751 27.4773C180.236 27.8182 180.85 27.9886 181.592 27.9886ZM198.632 20.9091V31H193.791V13.5455H198.404V16.625H198.609C198.995 15.6098 199.643 14.8068 200.552 14.2159C201.461 13.6174 202.564 13.3182 203.859 13.3182C205.071 13.3182 206.128 13.5833 207.029 14.1136C207.931 14.6439 208.632 15.4015 209.132 16.3864C209.632 17.3636 209.882 18.5303 209.882 19.8864V31H205.041V20.75C205.048 19.6818 204.776 18.8485 204.223 18.25C203.67 17.6439 202.908 17.3409 201.939 17.3409C201.287 17.3409 200.711 17.4811 200.211 17.7614C199.719 18.0417 199.332 18.4508 199.052 18.9886C198.779 19.5189 198.639 20.1591 198.632 20.9091ZM218.674 31.3295C217.561 31.3295 216.568 31.1364 215.697 30.75C214.826 30.3561 214.136 29.7765 213.629 29.0114C213.129 28.2386 212.879 27.2765 212.879 26.125C212.879 25.1553 213.057 24.3409 213.413 23.6818C213.769 23.0227 214.254 22.4924 214.868 22.0909C215.481 21.6894 216.178 21.3864 216.958 21.1818C217.746 20.9773 218.572 20.8333 219.436 20.75C220.451 20.6439 221.269 20.5455 221.89 20.4545C222.511 20.3561 222.962 20.2121 223.243 20.0227C223.523 19.8333 223.663 19.553 223.663 19.1818V19.1136C223.663 18.3939 223.436 17.8371 222.981 17.4432C222.534 17.0492 221.898 16.8523 221.072 16.8523C220.201 16.8523 219.508 17.0455 218.993 17.4318C218.477 17.8106 218.136 18.2879 217.97 18.8636L213.493 18.5C213.72 17.4394 214.167 16.5227 214.833 15.75C215.5 14.9697 216.36 14.3712 217.413 13.9545C218.474 13.5303 219.701 13.3182 221.095 13.3182C222.064 13.3182 222.993 13.4318 223.879 13.6591C224.773 13.8864 225.564 14.2386 226.254 14.7159C226.951 15.1932 227.5 15.8068 227.902 16.5568C228.303 17.2992 228.504 18.1894 228.504 19.2273V31H223.913V28.5795H223.777C223.496 29.125 223.121 29.6061 222.652 30.0227C222.182 30.4318 221.618 30.7538 220.958 30.9886C220.299 31.2159 219.538 31.3295 218.674 31.3295ZM220.061 27.9886C220.773 27.9886 221.402 27.8485 221.947 27.5682C222.493 27.2803 222.921 26.8939 223.231 26.4091C223.542 25.9242 223.697 25.375 223.697 24.7614V22.9091C223.546 23.0076 223.337 23.0985 223.072 23.1818C222.814 23.2576 222.523 23.3295 222.197 23.3977C221.871 23.4583 221.546 23.5152 221.22 23.5682C220.894 23.6136 220.599 23.6553 220.333 23.6932C219.765 23.7765 219.269 23.9091 218.845 24.0909C218.421 24.2727 218.091 24.5189 217.856 24.8295C217.621 25.1326 217.504 25.5114 217.504 25.9659C217.504 26.625 217.743 27.1288 218.22 27.4773C218.705 27.8182 219.318 27.9886 220.061 27.9886ZM240.123 37.9091C238.555 37.9091 237.21 37.6932 236.089 37.2614C234.975 36.8371 234.089 36.2576 233.43 35.5227C232.771 34.7879 232.343 33.9621 232.146 33.0455L236.623 32.4432C236.76 32.7917 236.975 33.1174 237.271 33.4205C237.566 33.7235 237.957 33.9659 238.441 34.1477C238.934 34.3371 239.532 34.4318 240.237 34.4318C241.29 34.4318 242.157 34.1742 242.839 33.6591C243.528 33.1515 243.873 32.2992 243.873 31.1023V27.9091H243.669C243.457 28.3939 243.138 28.8523 242.714 29.2841C242.29 29.7159 241.744 30.0682 241.078 30.3409C240.411 30.6136 239.616 30.75 238.691 30.75C237.381 30.75 236.188 30.447 235.112 29.8409C234.044 29.2273 233.191 28.2917 232.555 27.0341C231.926 25.7689 231.612 24.1705 231.612 22.2386C231.612 20.2614 231.934 18.6098 232.578 17.2841C233.222 15.9583 234.078 14.9659 235.146 14.3068C236.222 13.6477 237.4 13.3182 238.68 13.3182C239.657 13.3182 240.475 13.4848 241.135 13.8182C241.794 14.1439 242.324 14.553 242.725 15.0455C243.135 15.5303 243.449 16.0076 243.669 16.4773H243.85V13.5455H248.657V31.1705C248.657 32.6553 248.294 33.8977 247.566 34.8977C246.839 35.8977 245.832 36.6477 244.544 37.1477C243.263 37.6553 241.79 37.9091 240.123 37.9091ZM240.225 27.1136C241.006 27.1136 241.665 26.9205 242.203 26.5341C242.748 26.1402 243.165 25.5795 243.453 24.8523C243.748 24.1174 243.896 23.2386 243.896 22.2159C243.896 21.1932 243.752 20.3068 243.464 19.5568C243.176 18.7992 242.76 18.2121 242.214 17.7955C241.669 17.3788 241.006 17.1705 240.225 17.1705C239.43 17.1705 238.76 17.3864 238.214 17.8182C237.669 18.2424 237.256 18.8333 236.975 19.5909C236.695 20.3485 236.555 21.2235 236.555 22.2159C236.555 23.2235 236.695 24.0947 236.975 24.8295C237.263 25.5568 237.676 26.1212 238.214 26.5227C238.76 26.9167 239.43 27.1136 240.225 27.1136ZM260.464 31.3409C258.669 31.3409 257.123 30.9773 255.828 30.25C254.54 29.5152 253.547 28.4773 252.85 27.1364C252.153 25.7879 251.805 24.1932 251.805 22.3523C251.805 20.5568 252.153 18.9811 252.85 17.625C253.547 16.2689 254.528 15.2121 255.794 14.4545C257.066 13.697 258.559 13.3182 260.271 13.3182C261.422 13.3182 262.494 13.5038 263.487 13.875C264.487 14.2386 265.358 14.7879 266.1 15.5227C266.85 16.2576 267.434 17.1818 267.85 18.2955C268.267 19.4015 268.475 20.697 268.475 22.1818V23.5114H253.737V20.5114H263.919C263.919 19.8144 263.767 19.197 263.464 18.6591C263.161 18.1212 262.741 17.7008 262.203 17.3977C261.672 17.0871 261.055 16.9318 260.35 16.9318C259.616 16.9318 258.964 17.1023 258.396 17.4432C257.835 17.7765 257.396 18.2273 257.078 18.7955C256.76 19.3561 256.597 19.9811 256.589 20.6705V23.5227C256.589 24.3864 256.748 25.1326 257.066 25.7614C257.392 26.3902 257.85 26.875 258.441 27.2159C259.032 27.5568 259.733 27.7273 260.544 27.7273C261.082 27.7273 261.574 27.6515 262.021 27.5C262.468 27.3485 262.85 27.1212 263.169 26.8182C263.487 26.5152 263.729 26.1439 263.896 25.7045L268.373 26C268.146 27.0758 267.68 28.0152 266.975 28.8182C266.278 29.6136 265.377 30.2348 264.271 30.6818C263.172 31.1212 261.903 31.3409 260.464 31.3409ZM271.635 31V13.5455H276.328V16.5909H276.51C276.828 15.5076 277.362 14.6894 278.112 14.1364C278.862 13.5758 279.725 13.2955 280.703 13.2955C280.945 13.2955 281.207 13.3106 281.487 13.3409C281.767 13.3712 282.013 13.4129 282.225 13.4659V17.7614C281.998 17.6932 281.684 17.6326 281.282 17.5795C280.881 17.5265 280.513 17.5 280.18 17.5C279.468 17.5 278.832 17.6553 278.271 17.9659C277.718 18.2689 277.278 18.6932 276.953 19.2386C276.635 19.7841 276.475 20.4129 276.475 21.125V31H271.635Z" fill="black"/>
<path d="M77.4613 44.125C77.3817 43.8485 77.27 43.6042 77.126 43.392C76.9821 43.1761 76.8059 42.9943 76.5976 42.8466C76.3931 42.6951 76.1582 42.5795 75.8931 42.5C75.6317 42.4205 75.3419 42.3807 75.0238 42.3807C74.4291 42.3807 73.9063 42.5284 73.4556 42.8239C73.0086 43.1193 72.6601 43.5492 72.4101 44.1136C72.1601 44.6742 72.0351 45.3598 72.0351 46.1705C72.0351 46.9811 72.1582 47.6705 72.4044 48.2386C72.6506 48.8068 72.9991 49.2405 73.4499 49.5398C73.9006 49.8352 74.4328 49.983 75.0465 49.983C75.6033 49.983 76.0787 49.8845 76.4726 49.6875C76.8703 49.4867 77.1734 49.2045 77.3817 48.8409C77.5938 48.4773 77.6999 48.0473 77.6999 47.5511L78.1999 47.625H75.1999V45.7727H80.0692V47.2386C80.0692 48.2614 79.8533 49.1402 79.4215 49.875C78.9897 50.6061 78.395 51.1705 77.6374 51.5682C76.8798 51.9621 76.0124 52.1591 75.0351 52.1591C73.9442 52.1591 72.9859 51.9186 72.1601 51.4375C71.3344 50.9527 70.6904 50.2652 70.2283 49.375C69.77 48.4811 69.5408 47.4205 69.5408 46.1932C69.5408 45.25 69.6772 44.4091 69.9499 43.6705C70.2264 42.928 70.6128 42.2992 71.109 41.7841C71.6052 41.2689 72.1828 40.8769 72.8419 40.608C73.501 40.339 74.215 40.2045 74.984 40.2045C75.6431 40.2045 76.2567 40.3011 76.8249 40.4943C77.3931 40.6837 77.8969 40.9527 78.3363 41.3011C78.7794 41.6496 79.1412 42.0644 79.4215 42.5455C79.7018 43.0227 79.8817 43.5492 79.9613 44.125H77.4613ZM85.849 52.1705C84.9513 52.1705 84.1786 51.9886 83.5309 51.625C82.8869 51.2576 82.3907 50.7386 82.0422 50.0682C81.6937 49.3939 81.5195 48.5966 81.5195 47.6761C81.5195 46.7784 81.6937 45.9905 82.0422 45.3125C82.3907 44.6345 82.8812 44.1061 83.5138 43.7273C84.1502 43.3485 84.8964 43.1591 85.7524 43.1591C86.3282 43.1591 86.8642 43.2519 87.3604 43.4375C87.8604 43.6193 88.296 43.8939 88.6672 44.2614C89.0422 44.6288 89.3339 45.0909 89.5422 45.6477C89.7506 46.2008 89.8547 46.8485 89.8547 47.5909V48.2557H82.4854V46.7557H87.5763C87.5763 46.4072 87.5006 46.0985 87.349 45.8295C87.1975 45.5606 86.9873 45.3504 86.7184 45.1989C86.4532 45.0436 86.1445 44.9659 85.7922 44.9659C85.4248 44.9659 85.099 45.0511 84.8149 45.2216C84.5346 45.3883 84.3149 45.6136 84.1559 45.8977C83.9968 46.178 83.9153 46.4905 83.9115 46.8352V48.2614C83.9115 48.6932 83.9911 49.0663 84.1502 49.3807C84.3131 49.6951 84.5422 49.9375 84.8377 50.108C85.1331 50.2784 85.4835 50.3636 85.8888 50.3636C86.1577 50.3636 86.404 50.3258 86.6274 50.25C86.8509 50.1742 87.0422 50.0606 87.2013 49.9091C87.3604 49.7576 87.4816 49.572 87.5649 49.3523L89.8036 49.5C89.6899 50.0379 89.457 50.5076 89.1047 50.9091C88.7562 51.3068 88.3055 51.6174 87.7524 51.8409C87.2032 52.0606 86.5687 52.1705 85.849 52.1705ZM98.6956 45.7614L96.4797 45.8977C96.4418 45.7083 96.3604 45.5379 96.2354 45.3864C96.1104 45.2311 95.9456 45.108 95.7411 45.017C95.5403 44.9223 95.2998 44.875 95.0195 44.875C94.6445 44.875 94.3282 44.9545 94.0706 45.1136C93.8131 45.2689 93.6843 45.4773 93.6843 45.7386C93.6843 45.947 93.7676 46.1231 93.9343 46.267C94.1009 46.411 94.3869 46.5265 94.7922 46.6136L96.3718 46.9318C97.2202 47.1061 97.8528 47.3864 98.2695 47.7727C98.6862 48.1591 98.8945 48.6667 98.8945 49.2955C98.8945 49.8674 98.7259 50.3693 98.3888 50.8011C98.0555 51.233 97.5971 51.5701 97.0138 51.8125C96.4343 52.0511 95.7657 52.1705 95.0081 52.1705C93.8528 52.1705 92.9324 51.9299 92.2468 51.4489C91.5649 50.964 91.1653 50.3049 91.0479 49.4716L93.4286 49.3466C93.5006 49.6989 93.6748 49.9678 93.9513 50.1534C94.2278 50.3352 94.582 50.4261 95.0138 50.4261C95.4381 50.4261 95.779 50.3447 96.0365 50.1818C96.2979 50.0152 96.4305 49.8011 96.4343 49.5398C96.4305 49.3201 96.3377 49.1402 96.1559 49C95.974 48.8561 95.6937 48.7462 95.3149 48.6705L93.8036 48.3693C92.9513 48.1989 92.3168 47.9034 91.9002 47.483C91.4873 47.0625 91.2809 46.5265 91.2809 45.875C91.2809 45.3144 91.4324 44.8314 91.7354 44.4261C92.0422 44.0208 92.4721 43.7083 93.0252 43.4886C93.582 43.2689 94.2335 43.1591 94.9797 43.1591C96.082 43.1591 96.9494 43.392 97.582 43.858C98.2184 44.3239 98.5896 44.9583 98.6956 45.7614ZM105.061 43.2727V45.0909H99.805V43.2727H105.061ZM100.998 41.1818H103.419V49.3182C103.419 49.5417 103.453 49.7159 103.521 49.8409C103.589 49.9621 103.684 50.0473 103.805 50.0966C103.93 50.1458 104.074 50.1705 104.237 50.1705C104.35 50.1705 104.464 50.161 104.578 50.142C104.691 50.1193 104.778 50.1023 104.839 50.0909L105.22 51.892C105.099 51.9299 104.928 51.9735 104.708 52.0227C104.489 52.0758 104.222 52.108 103.907 52.1193C103.324 52.142 102.813 52.0644 102.373 51.8864C101.938 51.7083 101.599 51.4318 101.356 51.0568C101.114 50.6818 100.994 50.2083 100.998 49.6364V41.1818ZM109.126 52.1648C108.569 52.1648 108.073 52.0682 107.637 51.875C107.202 51.678 106.857 51.3883 106.603 51.0057C106.353 50.6193 106.228 50.1383 106.228 49.5625C106.228 49.0777 106.317 48.6705 106.495 48.3409C106.673 48.0114 106.916 47.7462 107.223 47.5455C107.529 47.3447 107.878 47.1932 108.268 47.0909C108.662 46.9886 109.075 46.9167 109.507 46.875C110.014 46.822 110.423 46.7727 110.734 46.7273C111.045 46.678 111.27 46.6061 111.41 46.5114C111.55 46.4167 111.62 46.2765 111.62 46.0909V46.0568C111.62 45.697 111.507 45.4186 111.279 45.2216C111.056 45.0246 110.738 44.9261 110.325 44.9261C109.889 44.9261 109.543 45.0227 109.285 45.2159C109.028 45.4053 108.857 45.6439 108.774 45.9318L106.535 45.75C106.649 45.2197 106.872 44.7614 107.206 44.375C107.539 43.9848 107.969 43.6856 108.495 43.4773C109.026 43.2652 109.639 43.1591 110.336 43.1591C110.821 43.1591 111.285 43.2159 111.728 43.3295C112.175 43.4432 112.571 43.6193 112.916 43.858C113.264 44.0966 113.539 44.4034 113.74 44.7784C113.94 45.1496 114.041 45.5947 114.041 46.1136V52H111.745V50.7898H111.677C111.537 51.0625 111.35 51.303 111.115 51.5114C110.88 51.7159 110.598 51.8769 110.268 51.9943C109.939 52.108 109.558 52.1648 109.126 52.1648ZM109.819 50.4943C110.175 50.4943 110.49 50.4242 110.762 50.2841C111.035 50.1402 111.249 49.947 111.404 49.7045C111.56 49.4621 111.637 49.1875 111.637 48.8807V47.9545C111.562 48.0038 111.457 48.0492 111.325 48.0909C111.196 48.1288 111.05 48.1648 110.887 48.1989C110.725 48.2292 110.562 48.2576 110.399 48.2841C110.236 48.3068 110.088 48.3277 109.956 48.3466C109.671 48.3883 109.423 48.4545 109.211 48.5455C108.999 48.6364 108.834 48.7595 108.717 48.9148C108.6 49.0663 108.541 49.2557 108.541 49.483C108.541 49.8125 108.66 50.0644 108.899 50.2386C109.141 50.4091 109.448 50.4943 109.819 50.4943ZM108.802 42.1989L107.456 42.1818C107.456 41.4583 107.634 40.9034 107.99 40.517C108.35 40.1307 108.787 39.9356 109.302 39.9318C109.567 39.9318 109.795 39.9754 109.984 40.0625C110.177 40.1458 110.35 40.2443 110.501 40.358C110.656 40.4716 110.804 40.572 110.944 40.6591C111.084 40.7424 111.236 40.7841 111.399 40.7841C111.618 40.7803 111.785 40.6989 111.899 40.5398C112.016 40.3769 112.075 40.1648 112.075 39.9034L113.399 39.9432C113.391 40.6591 113.209 41.2121 112.853 41.6023C112.497 41.9886 112.064 42.1837 111.552 42.1875C111.268 42.1875 111.029 42.1458 110.836 42.0625C110.647 41.9754 110.48 41.8769 110.336 41.767C110.192 41.6534 110.052 41.553 109.916 41.4659C109.779 41.3788 109.626 41.3352 109.456 41.3352C109.259 41.3352 109.1 41.4129 108.978 41.5682C108.861 41.7235 108.802 41.9337 108.802 42.1989ZM119.862 52.1705C118.979 52.1705 118.216 51.983 117.572 51.608C116.932 51.2292 116.438 50.7027 116.089 50.0284C115.741 49.3504 115.566 48.5644 115.566 47.6705C115.566 46.7689 115.741 45.9811 116.089 45.3068C116.438 44.6288 116.932 44.1023 117.572 43.7273C118.216 43.3485 118.979 43.1591 119.862 43.1591C120.744 43.1591 121.506 43.3485 122.146 43.7273C122.79 44.1023 123.286 44.6288 123.635 45.3068C123.983 45.9811 124.157 46.7689 124.157 47.6705C124.157 48.5644 123.983 49.3504 123.635 50.0284C123.286 50.7027 122.79 51.2292 122.146 51.608C121.506 51.983 120.744 52.1705 119.862 52.1705ZM119.873 50.2955C120.275 50.2955 120.61 50.1818 120.879 49.9545C121.148 49.7235 121.35 49.4091 121.487 49.0114C121.627 48.6136 121.697 48.161 121.697 47.6534C121.697 47.1458 121.627 46.6932 121.487 46.2955C121.35 45.8977 121.148 45.5833 120.879 45.3523C120.61 45.1212 120.275 45.0057 119.873 45.0057C119.468 45.0057 119.127 45.1212 118.85 45.3523C118.578 45.5833 118.371 45.8977 118.231 46.2955C118.095 46.6932 118.027 47.1458 118.027 47.6534C118.027 48.161 118.095 48.6136 118.231 49.0114C118.371 49.4091 118.578 49.7235 118.85 49.9545C119.127 50.1818 119.468 50.2955 119.873 50.2955ZM131.485 52H128.849L132.866 40.3636H136.037L140.048 52H137.412L134.497 43.0227H134.406L131.485 52ZM131.321 47.4261H137.548V49.3466H131.321V47.4261ZM144.929 55.4545C144.144 55.4545 143.472 55.3466 142.912 55.1307C142.355 54.9186 141.912 54.6288 141.582 54.2614C141.252 53.8939 141.038 53.4811 140.94 53.0227L143.179 52.7216C143.247 52.8958 143.355 53.0587 143.502 53.2102C143.65 53.3617 143.845 53.483 144.088 53.5739C144.334 53.6686 144.633 53.7159 144.985 53.7159C145.512 53.7159 145.946 53.5871 146.287 53.3295C146.631 53.0758 146.804 52.6496 146.804 52.0511V50.4545H146.701C146.595 50.697 146.436 50.9261 146.224 51.142C146.012 51.358 145.739 51.5341 145.406 51.6705C145.073 51.8068 144.675 51.875 144.213 51.875C143.557 51.875 142.961 51.7235 142.423 51.4205C141.889 51.1136 141.463 50.6458 141.144 50.017C140.83 49.3845 140.673 48.5852 140.673 47.6193C140.673 46.6307 140.834 45.8049 141.156 45.142C141.478 44.4792 141.906 43.983 142.44 43.6534C142.978 43.3239 143.567 43.1591 144.207 43.1591C144.696 43.1591 145.105 43.2424 145.434 43.4091C145.764 43.572 146.029 43.7765 146.23 44.0227C146.434 44.2652 146.591 44.5038 146.701 44.7386H146.792V43.2727H149.196V52.0852C149.196 52.8277 149.014 53.4489 148.65 53.9489C148.287 54.4489 147.783 54.8239 147.139 55.0739C146.499 55.3277 145.762 55.4545 144.929 55.4545ZM144.98 50.0568C145.37 50.0568 145.699 49.9602 145.968 49.767C146.241 49.5701 146.449 49.2898 146.593 48.9261C146.741 48.5587 146.815 48.1193 146.815 47.608C146.815 47.0966 146.743 46.6534 146.599 46.2784C146.455 45.8996 146.247 45.6061 145.974 45.3977C145.701 45.1894 145.37 45.0852 144.98 45.0852C144.582 45.0852 144.247 45.1932 143.974 45.4091C143.701 45.6212 143.495 45.9167 143.355 46.2955C143.215 46.6742 143.144 47.1117 143.144 47.608C143.144 48.1117 143.215 48.5473 143.355 48.9148C143.499 49.2784 143.705 49.5606 143.974 49.7614C144.247 49.9583 144.582 50.0568 144.98 50.0568ZM151.122 52V43.2727H153.468V44.7955H153.559C153.718 44.2538 153.985 43.8447 154.36 43.5682C154.735 43.2879 155.167 43.1477 155.656 43.1477C155.777 43.1477 155.908 43.1553 156.048 43.1705C156.188 43.1856 156.311 43.2064 156.417 43.233V45.3807C156.304 45.3466 156.146 45.3163 155.946 45.2898C155.745 45.2633 155.561 45.25 155.394 45.25C155.038 45.25 154.72 45.3277 154.44 45.483C154.163 45.6345 153.944 45.8466 153.781 46.1193C153.622 46.392 153.542 46.7064 153.542 47.0625V52H151.122ZM161.206 52.1705C160.323 52.1705 159.56 51.983 158.916 51.608C158.276 51.2292 157.781 50.7027 157.433 50.0284C157.084 49.3504 156.91 48.5644 156.91 47.6705C156.91 46.7689 157.084 45.9811 157.433 45.3068C157.781 44.6288 158.276 44.1023 158.916 43.7273C159.56 43.3485 160.323 43.1591 161.206 43.1591C162.088 43.1591 162.85 43.3485 163.49 43.7273C164.134 44.1023 164.63 44.6288 164.978 45.3068C165.327 45.9811 165.501 46.7689 165.501 47.6705C165.501 48.5644 165.327 49.3504 164.978 50.0284C164.63 50.7027 164.134 51.2292 163.49 51.608C162.85 51.983 162.088 52.1705 161.206 52.1705ZM161.217 50.2955C161.618 50.2955 161.954 50.1818 162.223 49.9545C162.492 49.7235 162.694 49.4091 162.831 49.0114C162.971 48.6136 163.041 48.161 163.041 47.6534C163.041 47.1458 162.971 46.6932 162.831 46.2955C162.694 45.8977 162.492 45.5833 162.223 45.3523C161.954 45.1212 161.618 45.0057 161.217 45.0057C160.812 45.0057 160.471 45.1212 160.194 45.3523C159.921 45.5833 159.715 45.8977 159.575 46.2955C159.439 46.6932 159.37 47.1458 159.37 47.6534C159.37 48.161 159.439 48.6136 159.575 49.0114C159.715 49.4091 159.921 49.7235 160.194 49.9545C160.471 50.1818 160.812 50.2955 161.217 50.2955ZM167.075 55.2727V43.2727H169.461V44.7386H169.569C169.675 44.5038 169.829 44.2652 170.029 44.0227C170.234 43.7765 170.499 43.572 170.825 43.4091C171.154 43.2424 171.564 43.1591 172.052 43.1591C172.689 43.1591 173.276 43.3258 173.814 43.6591C174.351 43.9886 174.781 44.4867 175.103 45.1534C175.425 45.8163 175.586 46.6477 175.586 47.6477C175.586 48.6212 175.429 49.4432 175.115 50.1136C174.804 50.7803 174.38 51.286 173.842 51.6307C173.308 51.9716 172.709 52.142 172.046 52.142C171.577 52.142 171.177 52.0644 170.848 51.9091C170.522 51.7538 170.255 51.5587 170.046 51.3239C169.838 51.0852 169.679 50.8447 169.569 50.6023H169.495V55.2727H167.075ZM169.444 47.6364C169.444 48.1553 169.516 48.608 169.66 48.9943C169.804 49.3807 170.012 49.6818 170.285 49.8977C170.558 50.1098 170.889 50.2159 171.279 50.2159C171.673 50.2159 172.007 50.108 172.279 49.892C172.552 49.6723 172.759 49.3693 172.899 48.983C173.043 48.5928 173.115 48.1439 173.115 47.6364C173.115 47.1326 173.045 46.6894 172.904 46.3068C172.764 45.9242 172.558 45.625 172.285 45.4091C172.012 45.1932 171.677 45.0852 171.279 45.0852C170.885 45.0852 170.552 45.1894 170.279 45.3977C170.01 45.6061 169.804 45.9015 169.66 46.2841C169.516 46.6667 169.444 47.1174 169.444 47.6364ZM181.177 52.1705C180.279 52.1705 179.507 51.9886 178.859 51.625C178.215 51.2576 177.719 50.7386 177.37 50.0682C177.022 49.3939 176.848 48.5966 176.848 47.6761C176.848 46.7784 177.022 45.9905 177.37 45.3125C177.719 44.6345 178.209 44.1061 178.842 43.7273C179.478 43.3485 180.225 43.1591 181.081 43.1591C181.656 43.1591 182.192 43.2519 182.689 43.4375C183.189 43.6193 183.624 43.8939 183.995 44.2614C184.37 44.6288 184.662 45.0909 184.87 45.6477C185.079 46.2008 185.183 46.8485 185.183 47.5909V48.2557H177.814V46.7557H182.904C182.904 46.4072 182.829 46.0985 182.677 45.8295C182.526 45.5606 182.315 45.3504 182.046 45.1989C181.781 45.0436 181.473 44.9659 181.12 44.9659C180.753 44.9659 180.427 45.0511 180.143 45.2216C179.863 45.3883 179.643 45.6136 179.484 45.8977C179.325 46.178 179.243 46.4905 179.24 46.8352V48.2614C179.24 48.6932 179.319 49.0663 179.478 49.3807C179.641 49.6951 179.87 49.9375 180.166 50.108C180.461 50.2784 180.812 50.3636 181.217 50.3636C181.486 50.3636 181.732 50.3258 181.956 50.25C182.179 50.1742 182.37 50.0606 182.529 49.9091C182.689 49.7576 182.81 49.572 182.893 49.3523L185.132 49.5C185.018 50.0379 184.785 50.5076 184.433 50.9091C184.084 51.3068 183.634 51.6174 183.081 51.8409C182.531 52.0606 181.897 52.1705 181.177 52.1705ZM190.706 52.1705C189.812 52.1705 189.043 51.9811 188.399 51.6023C187.759 51.2197 187.266 50.6894 186.921 50.0114C186.581 49.3333 186.41 48.553 186.41 47.6705C186.41 46.7765 186.582 45.9924 186.927 45.3182C187.276 44.6402 187.77 44.1117 188.41 43.733C189.05 43.3504 189.812 43.1591 190.694 43.1591C191.456 43.1591 192.122 43.2973 192.694 43.5739C193.266 43.8504 193.719 44.2386 194.052 44.7386C194.385 45.2386 194.569 45.8258 194.603 46.5H192.319C192.255 46.0644 192.084 45.714 191.808 45.4489C191.535 45.1799 191.177 45.0455 190.734 45.0455C190.359 45.0455 190.031 45.1477 189.751 45.3523C189.475 45.553 189.259 45.8466 189.103 46.233C188.948 46.6193 188.87 47.0871 188.87 47.6364C188.87 48.1932 188.946 48.6667 189.098 49.0568C189.253 49.447 189.471 49.7443 189.751 49.9489C190.031 50.1534 190.359 50.2557 190.734 50.2557C191.01 50.2557 191.259 50.1989 191.478 50.0852C191.702 49.9716 191.885 49.8068 192.029 49.5909C192.177 49.3712 192.274 49.108 192.319 48.8011H194.603C194.565 49.4678 194.384 50.0549 194.058 50.5625C193.736 51.0663 193.291 51.4602 192.723 51.7443C192.154 52.0284 191.482 52.1705 190.706 52.1705ZM201.75 48.2841V43.2727H204.17V52H201.846V50.4148H201.755C201.558 50.9261 201.231 51.3371 200.772 51.6477C200.318 51.9583 199.763 52.1136 199.108 52.1136C198.524 52.1136 198.011 51.9811 197.568 51.7159C197.125 51.4508 196.778 51.0739 196.528 50.5852C196.282 50.0966 196.157 49.5114 196.153 48.8295V43.2727H198.573V48.3977C198.577 48.9129 198.716 49.3201 198.988 49.6193C199.261 49.9186 199.626 50.0682 200.085 50.0682C200.376 50.0682 200.649 50.0019 200.903 49.8693C201.157 49.733 201.361 49.5322 201.517 49.267C201.676 49.0019 201.753 48.6742 201.75 48.2841ZM208.595 52.1648C208.038 52.1648 207.542 52.0682 207.106 51.875C206.671 51.678 206.326 51.3883 206.072 51.0057C205.822 50.6193 205.697 50.1383 205.697 49.5625C205.697 49.0777 205.786 48.6705 205.964 48.3409C206.142 48.0114 206.385 47.7462 206.691 47.5455C206.998 47.3447 207.347 47.1932 207.737 47.0909C208.131 46.9886 208.544 46.9167 208.975 46.875C209.483 46.822 209.892 46.7727 210.203 46.7273C210.513 46.678 210.739 46.6061 210.879 46.5114C211.019 46.4167 211.089 46.2765 211.089 46.0909V46.0568C211.089 45.697 210.975 45.4186 210.748 45.2216C210.525 45.0246 210.207 44.9261 209.794 44.9261C209.358 44.9261 209.011 45.0227 208.754 45.2159C208.496 45.4053 208.326 45.6439 208.243 45.9318L206.004 45.75C206.118 45.2197 206.341 44.7614 206.674 44.375C207.008 43.9848 207.438 43.6856 207.964 43.4773C208.494 43.2652 209.108 43.1591 209.805 43.1591C210.29 43.1591 210.754 43.2159 211.197 43.3295C211.644 43.4432 212.04 43.6193 212.385 43.858C212.733 44.0966 213.008 44.4034 213.208 44.7784C213.409 45.1496 213.51 45.5947 213.51 46.1136V52H211.214V50.7898H211.146C211.006 51.0625 210.818 51.303 210.583 51.5114C210.349 51.7159 210.066 51.8769 209.737 51.9943C209.407 52.108 209.027 52.1648 208.595 52.1648ZM209.288 50.4943C209.644 50.4943 209.958 50.4242 210.231 50.2841C210.504 50.1402 210.718 49.947 210.873 49.7045C211.028 49.4621 211.106 49.1875 211.106 48.8807V47.9545C211.03 48.0038 210.926 48.0492 210.794 48.0909C210.665 48.1288 210.519 48.1648 210.356 48.1989C210.193 48.2292 210.03 48.2576 209.868 48.2841C209.705 48.3068 209.557 48.3277 209.424 48.3466C209.14 48.3883 208.892 48.4545 208.68 48.5455C208.468 48.6364 208.303 48.7595 208.186 48.9148C208.068 49.0663 208.01 49.2557 208.01 49.483C208.01 49.8125 208.129 50.0644 208.368 50.2386C208.61 50.4091 208.917 50.4943 209.288 50.4943ZM209.027 42.1477L210.231 39.5625H212.47L210.737 42.1477H209.027ZM215.387 52V43.2727H217.734V44.7955H217.825C217.984 44.2538 218.251 43.8447 218.626 43.5682C219.001 43.2879 219.433 43.1477 219.921 43.1477C220.043 43.1477 220.173 43.1553 220.314 43.1705C220.454 43.1856 220.577 43.2064 220.683 43.233V45.3807C220.569 45.3466 220.412 45.3163 220.211 45.2898C220.01 45.2633 219.827 45.25 219.66 45.25C219.304 45.25 218.986 45.3277 218.706 45.483C218.429 45.6345 218.209 45.8466 218.046 46.1193C217.887 46.392 217.808 46.7064 217.808 47.0625V52H215.387ZM221.934 52V43.2727H224.355V52H221.934ZM223.15 42.1477C222.79 42.1477 222.482 42.0284 222.224 41.7898C221.97 41.5473 221.843 41.2576 221.843 40.9205C221.843 40.5871 221.97 40.3011 222.224 40.0625C222.482 39.8201 222.79 39.6989 223.15 39.6989C223.51 39.6989 223.817 39.8201 224.071 40.0625C224.328 40.3011 224.457 40.5871 224.457 40.9205C224.457 41.2576 224.328 41.5473 224.071 41.7898C223.817 42.0284 223.51 42.1477 223.15 42.1477ZM228.782 52.1648C228.225 52.1648 227.729 52.0682 227.294 51.875C226.858 51.678 226.513 51.3883 226.26 51.0057C226.01 50.6193 225.885 50.1383 225.885 49.5625C225.885 49.0777 225.974 48.6705 226.152 48.3409C226.33 48.0114 226.572 47.7462 226.879 47.5455C227.186 47.3447 227.534 47.1932 227.924 47.0909C228.318 46.9886 228.731 46.9167 229.163 46.875C229.671 46.822 230.08 46.7727 230.39 46.7273C230.701 46.678 230.926 46.6061 231.066 46.5114C231.207 46.4167 231.277 46.2765 231.277 46.0909V46.0568C231.277 45.697 231.163 45.4186 230.936 45.2216C230.712 45.0246 230.394 44.9261 229.981 44.9261C229.546 44.9261 229.199 45.0227 228.941 45.2159C228.684 45.4053 228.513 45.6439 228.43 45.9318L226.191 45.75C226.305 45.2197 226.528 44.7614 226.862 44.375C227.195 43.9848 227.625 43.6856 228.152 43.4773C228.682 43.2652 229.296 43.1591 229.993 43.1591C230.477 43.1591 230.941 43.2159 231.385 43.3295C231.832 43.4432 232.227 43.6193 232.572 43.858C232.921 44.0966 233.195 44.4034 233.396 44.7784C233.597 45.1496 233.697 45.5947 233.697 46.1136V52H231.402V50.7898H231.333C231.193 51.0625 231.006 51.303 230.771 51.5114C230.536 51.7159 230.254 51.8769 229.924 51.9943C229.595 52.108 229.214 52.1648 228.782 52.1648ZM229.475 50.4943C229.832 50.4943 230.146 50.4242 230.419 50.2841C230.691 50.1402 230.905 49.947 231.061 49.7045C231.216 49.4621 231.294 49.1875 231.294 48.8807V47.9545C231.218 48.0038 231.114 48.0492 230.981 48.0909C230.852 48.1288 230.707 48.1648 230.544 48.1989C230.381 48.2292 230.218 48.2576 230.055 48.2841C229.892 48.3068 229.744 48.3277 229.612 48.3466C229.328 48.3883 229.08 48.4545 228.868 48.5455C228.655 48.6364 228.491 48.7595 228.373 48.9148C228.256 49.0663 228.197 49.2557 228.197 49.483C228.197 49.8125 228.316 50.0644 228.555 50.2386C228.797 50.4091 229.104 50.4943 229.475 50.4943Z" fill="#606060"/>
</svg>
