<svg width="307" height="62" viewBox="0 0 307 62" fill="none" xmlns="http://www.w3.org/2000/svg">
<rect width="307" height="62" fill="white"/>
<circle cx="31.734" cy="31" r="31" fill="#2E7D32"/>
<circle cx="31.734" cy="31" r="27" fill="white"/>
<path d="M8.35846 7.21915C9.73398 9 10.6923 8.28829 13.3585 11.2192" stroke="white" stroke-width="2"/>
<path d="M53.8527 8.14843C52.4772 9.92928 51.5189 9.21757 48.8527 12.1484" stroke="white" stroke-width="2"/>
<path d="M57.734 24C58.234 25.5 60.734 27 60.734 27" stroke="white" stroke-width="2"/>
<path d="M6.18922 23.8276C5.7651 25.3656 2.73398 26.6 2.73398 26.6" stroke="white" stroke-width="2"/>
<path d="M19.2244 36.4207C19.2244 42.3401 22.9105 45.2622 21.8363 48.9337" stroke="black" stroke-width="2.5" stroke-linecap="round"/>
<path d="M10.6751 8.13614C12.5695 9.03527 17.9367 11.6578 22.9093 12.7067" stroke="black" stroke-width="2.5" stroke-linecap="round"/>
<path d="M26.1483 45.3928C27.9543 40.0108 23.1193 37.5276 22.7343 30.4265" stroke="black" stroke-width="2.5"/>
<path d="M22.7624 30.8761C23.0245 27.2795 17.2588 24.8069 14.638 29.3026" stroke="black" stroke-width="2.5"/>
<path d="M18.1363 27.0366C18.173 30.6293 17.1213 33.8341 23.0446 33.4099" stroke="black" stroke-width="2.5"/>
<path d="M22.6816 49.9151C23.2992 49.6561 23.5682 48.919 23.2824 48.2686C22.9967 47.6183 22.2643 47.301 21.6466 47.5599L22.1641 48.7375L22.6816 49.9151ZM22.1641 48.7375L21.6466 47.5599C20.944 47.8545 20.5014 48.5277 20.2307 49.0877C19.9342 49.7012 19.7175 50.444 19.5895 51.2149C19.3404 52.7147 19.3814 54.6181 20.1311 56.1288L21.2225 55.6023L22.3139 55.0758C21.9148 54.2716 21.816 52.9987 22.0196 51.7728C22.1179 51.1807 22.2757 50.6734 22.4497 50.3135C22.6495 49.9 22.7736 49.8765 22.6816 49.9151L22.1641 48.7375Z" fill="black"/>
<path d="M14.734 29C13.734 30.6881 9.19552 31.9988 5.73398 28" stroke="black" stroke-width="2.5" stroke-linecap="round"/>
<path d="M5.73399 28C5.03864 27.4887 4.55928 27 2.73398 27" stroke="black" stroke-width="2.5"/>
<path d="M3.23396 27C-0.356089 26.6571 1.73399 25.5 3.23398 24.5" stroke="black" stroke-width="2.5" stroke-linecap="round"/>
<path d="M3.11505 24.5072C7.27248 21.1885 14.2757 19.1582 16.4441 20.8815" stroke="black" stroke-width="2.5"/>
<path d="M16.3885 20.8357C20.0964 23.4994 20.8388 20.3862 21.0589 18.513" stroke="black" stroke-width="2.5"/>
<path d="M21.069 18.5879C21.7596 15.366 11.6223 13.0064 9.0176 9.93439" stroke="black" stroke-width="2.5"/>
<path d="M9.09655 10.0093C9.09655 10.0093 3.72931 4.91423 10.6751 8.13613" stroke="black" stroke-width="2.5"/>
<path d="M29.4881 12.2604C30.165 12.3962 30.8238 11.9576 30.9596 11.2807C31.0954 10.6038 30.6567 9.94503 29.9799 9.80923L29.734 11.0348L29.4881 12.2604ZM22.734 12.7288L22.1027 13.8076C22.9828 14.3226 23.9046 14.3191 24.696 14.1418C25.4589 13.971 26.2012 13.6165 26.8214 13.3018C27.4954 12.9597 28.0223 12.6678 28.5416 12.4602C29.0626 12.252 29.3435 12.2314 29.4881 12.2604L29.734 11.0348L29.9799 9.80923C29.1099 9.6347 28.2694 9.87673 27.6138 10.1388C26.9564 10.4015 26.2515 10.7875 25.69 11.0724C25.0747 11.3847 24.578 11.6064 24.1497 11.7023C23.75 11.7918 23.5287 11.7455 23.3653 11.6499L22.734 12.7288Z" fill="black"/>
<path d="M21.234 55.5C22.234 57.5 24.234 58.3419 26.734 57.4353" stroke="black" stroke-width="2.5" stroke-linecap="round"/>
<path d="M22.2199 48.7089C23.4475 47.8098 26.133 46.7608 26.133 45.2623" stroke="black" stroke-width="2.5"/>
<path d="M27.6345 53.2393C27.3286 51.6894 25.8122 51.5169 25.6084 50.484" stroke="black" stroke-width="2.5" stroke-linecap="round"/>
<path d="M27.677 53.3225C27.9071 54.3715 26.9002 55.0778 25.9028 53.804" stroke="black" stroke-width="2.5" stroke-linecap="round"/>
<path d="M44.2436 36.4207C44.2436 42.3401 40.5575 45.2622 41.6317 48.9337" stroke="black" stroke-width="2.5" stroke-linecap="round"/>
<path d="M52.7928 8.13614C50.8985 9.03527 45.5313 11.6578 40.5587 12.7067" stroke="black" stroke-width="2.5" stroke-linecap="round"/>
<path d="M37.3196 45.3928C35.5137 40.0107 40.3487 37.5276 40.7337 30.4265" stroke="black" stroke-width="2.5"/>
<path d="M40.7056 30.8761C40.4435 27.2795 46.2092 24.8069 48.83 29.3026" stroke="black" stroke-width="2.5"/>
<path d="M45.3316 27.0366C45.295 30.6293 46.3466 33.8341 40.4234 33.4099" stroke="black" stroke-width="2.5"/>
<path d="M40.7864 49.915C40.1687 49.6561 39.8997 48.919 40.1855 48.2686C40.4713 47.6183 41.2037 47.301 41.8213 47.5599L41.3039 48.7375L40.7864 49.915ZM41.3039 48.7375L41.8213 47.5599C42.524 47.8544 42.9665 48.5277 43.2372 49.0877C43.5338 49.7011 43.7505 50.444 43.8785 51.2149C44.1276 52.7147 44.0866 54.6181 43.3369 56.1288L42.2455 55.6023L41.1541 55.0758C41.5532 54.2716 41.652 52.9986 41.4484 51.7727C41.35 51.1807 41.1923 50.6734 41.0183 50.3135C40.8184 49.9 40.6944 49.8765 40.7864 49.915L41.3039 48.7375Z" fill="black"/>
<path d="M48.734 29C49.734 30.6881 54.2724 31.9988 57.734 28" stroke="black" stroke-width="2.5" stroke-linecap="round"/>
<path d="M57.734 28C58.4293 27.4887 58.9087 27 60.734 27" stroke="black" stroke-width="2.5"/>
<path d="M60.234 27C63.824 26.6571 61.734 25.5 60.234 24.5" stroke="black" stroke-width="2.5" stroke-linecap="round"/>
<path d="M60.3529 24.5072C56.1955 21.1885 49.1922 19.1582 47.0238 20.8815" stroke="black" stroke-width="2.5"/>
<path d="M47.0795 20.8357C43.3715 23.4994 42.6291 20.3862 42.4091 18.513" stroke="black" stroke-width="2.5"/>
<path d="M42.3989 18.5879C41.7084 15.366 51.8457 13.0064 54.4504 9.93439" stroke="black" stroke-width="2.5"/>
<path d="M54.3714 10.0093C54.3714 10.0093 59.7386 4.91423 52.7928 8.13613" stroke="black" stroke-width="2.5"/>
<path d="M33.9799 12.2604C33.303 12.3962 32.6442 11.9576 32.5084 11.2807C32.3726 10.6038 32.8112 9.94503 33.4881 9.80923L33.734 11.0348L33.9799 12.2604ZM40.734 12.7288L41.3653 13.8076C40.4852 14.3226 39.5634 14.3191 38.7719 14.1418C38.0091 13.971 37.2668 13.6165 36.6465 13.3018C35.9725 12.9597 35.4456 12.6678 34.9263 12.4602C34.4053 12.252 34.1244 12.2314 33.9799 12.2604L33.734 11.0348L33.4881 9.80923C34.3581 9.6347 35.1986 9.87673 35.8542 10.1388C36.5115 10.4015 37.2165 10.7875 37.7779 11.0724C38.3932 11.3847 38.89 11.6064 39.3182 11.7023C39.7179 11.7918 39.9392 11.7455 40.1027 11.6499L40.734 12.7288Z" fill="black"/>
<path d="M42.234 55.5C41.234 57.5 39.234 58.3418 36.734 57.4353" stroke="black" stroke-width="2.5" stroke-linecap="round"/>
<path d="M41.248 48.7089C40.0204 47.8098 37.335 46.7608 37.335 45.2622" stroke="black" stroke-width="2.5"/>
<path d="M35.8335 53.2393C36.1393 51.6894 37.6557 51.5169 37.8595 50.484" stroke="black" stroke-width="2.5" stroke-linecap="round"/>
<path d="M35.791 53.3225C35.5608 54.3715 36.5677 55.0778 37.5652 53.804" stroke="black" stroke-width="2.5" stroke-linecap="round"/>
<path d="M73.5223 44H67.5905L76.6289 17.8182H83.7624L92.788 44H86.8561L80.2979 23.8011H80.0934L73.5223 44ZM73.1516 33.7088H87.163V38.0298H73.1516V33.7088ZM103.769 51.7727C102.005 51.7727 100.493 51.5298 99.2311 51.044C97.9783 50.5668 96.9811 49.9148 96.2397 49.0881C95.4982 48.2614 95.0166 47.3324 94.7951 46.3011L99.832 45.6236C99.9854 46.0156 100.228 46.3821 100.561 46.723C100.893 47.0639 101.332 47.3366 101.877 47.5412C102.431 47.7543 103.105 47.8608 103.897 47.8608C105.082 47.8608 106.058 47.571 106.825 46.9915C107.6 46.4205 107.988 45.4616 107.988 44.1151V40.5227H107.758C107.519 41.0682 107.162 41.5838 106.684 42.0696C106.207 42.5554 105.593 42.9517 104.843 43.2585C104.093 43.5653 103.198 43.7188 102.159 43.7188C100.684 43.7188 99.3419 43.3778 98.1317 42.696C96.93 42.0057 95.9712 40.9531 95.2553 39.5384C94.5479 38.1151 94.1942 36.3168 94.1942 34.1435C94.1942 31.919 94.5564 30.0611 95.2809 28.5696C96.0053 27.0781 96.9684 25.9616 98.1701 25.2202C99.3803 24.4787 100.706 24.108 102.146 24.108C103.245 24.108 104.166 24.2955 104.907 24.6705C105.649 25.0369 106.245 25.4972 106.697 26.0511C107.157 26.5966 107.511 27.1335 107.758 27.6619H107.963V24.3636H113.37V44.1918C113.37 45.8622 112.961 47.2599 112.143 48.3849C111.325 49.5099 110.191 50.3537 108.743 50.9162C107.302 51.4872 105.644 51.7727 103.769 51.7727ZM103.885 39.6278C104.762 39.6278 105.504 39.4105 106.109 38.9759C106.723 38.5327 107.191 37.902 107.515 37.0838C107.848 36.2571 108.014 35.2685 108.014 34.1179C108.014 32.9673 107.852 31.9702 107.528 31.1264C107.204 30.2741 106.735 29.6136 106.122 29.1449C105.508 28.6761 104.762 28.4418 103.885 28.4418C102.99 28.4418 102.235 28.6847 101.622 29.1705C101.008 29.6477 100.544 30.3125 100.228 31.1648C99.913 32.017 99.7553 33.0014 99.7553 34.1179C99.7553 35.2514 99.913 36.2315 100.228 37.0582C100.552 37.8764 101.017 38.5114 101.622 38.9631C102.235 39.4062 102.99 39.6278 103.885 39.6278ZM117.704 44V24.3636H122.984V27.7898H123.189C123.546 26.571 124.147 25.6506 124.991 25.0284C125.835 24.3977 126.806 24.0824 127.906 24.0824C128.179 24.0824 128.473 24.0994 128.788 24.1335C129.103 24.1676 129.38 24.2145 129.619 24.2741V29.1065C129.363 29.0298 129.01 28.9616 128.558 28.902C128.106 28.8423 127.693 28.8125 127.318 28.8125C126.517 28.8125 125.801 28.9872 125.17 29.3366C124.548 29.6776 124.054 30.1548 123.687 30.7685C123.329 31.3821 123.15 32.0895 123.15 32.8906V44H117.704ZM140.393 44.3835C138.407 44.3835 136.69 43.9616 135.241 43.1179C133.8 42.2656 132.688 41.081 131.904 39.5639C131.12 38.0384 130.728 36.2699 130.728 34.2585C130.728 32.2301 131.12 30.4574 131.904 28.9403C132.688 27.4148 133.8 26.2301 135.241 25.3864C136.69 24.5341 138.407 24.108 140.393 24.108C142.379 24.108 144.092 24.5341 145.532 25.3864C146.981 26.2301 148.097 27.4148 148.881 28.9403C149.665 30.4574 150.057 32.2301 150.057 34.2585C150.057 36.2699 149.665 38.0384 148.881 39.5639C148.097 41.081 146.981 42.2656 145.532 43.1179C144.092 43.9616 142.379 44.3835 140.393 44.3835ZM140.418 40.1648C141.322 40.1648 142.076 39.9091 142.681 39.3977C143.286 38.8778 143.742 38.1705 144.049 37.2756C144.364 36.3807 144.522 35.3622 144.522 34.2202C144.522 33.0781 144.364 32.0597 144.049 31.1648C143.742 30.2699 143.286 29.5625 142.681 29.0426C142.076 28.5227 141.322 28.2628 140.418 28.2628C139.506 28.2628 138.739 28.5227 138.117 29.0426C137.504 29.5625 137.039 30.2699 136.724 31.1648C136.417 32.0597 136.263 33.0781 136.263 34.2202C136.263 35.3622 136.417 36.3807 136.724 37.2756C137.039 38.1705 137.504 38.8778 138.117 39.3977C138.739 39.9091 139.506 40.1648 140.418 40.1648Z" fill="#2E7D32"/>
<path d="M153.701 17.8182H160.528L167.738 35.4091H168.045L175.255 17.8182H182.082V44H176.712V26.9588H176.495L169.719 43.8722H166.063L159.288 26.8949H159.07V44H153.701V17.8182ZM192.14 44.3707C190.887 44.3707 189.77 44.1534 188.79 43.7188C187.81 43.2756 187.034 42.6236 186.463 41.7628C185.901 40.8935 185.62 39.8111 185.62 38.5156C185.62 37.4247 185.82 36.5085 186.22 35.767C186.621 35.0256 187.167 34.429 187.857 33.9773C188.547 33.5256 189.331 33.1847 190.209 32.9545C191.095 32.7244 192.024 32.5625 192.996 32.4688C194.138 32.3494 195.059 32.2386 195.757 32.1364C196.456 32.0256 196.963 31.8636 197.279 31.6506C197.594 31.4375 197.752 31.1222 197.752 30.7045V30.6278C197.752 29.8182 197.496 29.1918 196.985 28.7486C196.482 28.3054 195.766 28.0838 194.837 28.0838C193.857 28.0838 193.077 28.3011 192.497 28.7358C191.918 29.1619 191.534 29.6989 191.347 30.3466L186.31 29.9375C186.566 28.7443 187.068 27.7131 187.818 26.8438C188.568 25.9659 189.536 25.2926 190.72 24.8239C191.914 24.3466 193.294 24.108 194.863 24.108C195.953 24.108 196.997 24.2358 197.995 24.4915C199 24.7472 199.891 25.1435 200.667 25.6804C201.451 26.2173 202.068 26.9077 202.52 27.7514C202.972 28.5866 203.198 29.5881 203.198 30.7557V44H198.033V41.277H197.88C197.564 41.8906 197.142 42.4318 196.614 42.9006C196.086 43.3608 195.451 43.723 194.709 43.9872C193.968 44.2429 193.111 44.3707 192.14 44.3707ZM193.699 40.6122C194.5 40.6122 195.208 40.4545 195.821 40.1392C196.435 39.8153 196.917 39.3807 197.266 38.8352C197.615 38.2898 197.79 37.6719 197.79 36.9815V34.8977C197.62 35.0085 197.385 35.1108 197.087 35.2045C196.797 35.2898 196.469 35.3707 196.103 35.4474C195.736 35.5156 195.37 35.5795 195.003 35.6392C194.637 35.6903 194.304 35.7372 194.006 35.7798C193.367 35.8736 192.809 36.0227 192.331 36.2273C191.854 36.4318 191.483 36.7088 191.219 37.0582C190.955 37.3991 190.823 37.8253 190.823 38.3366C190.823 39.0781 191.091 39.6449 191.628 40.0369C192.174 40.4205 192.864 40.6122 193.699 40.6122ZM212.869 32.6477V44H207.423V24.3636H212.613V27.8281H212.843C213.278 26.6861 214.007 25.7827 215.029 25.1179C216.052 24.4446 217.292 24.108 218.75 24.108C220.113 24.108 221.302 24.4062 222.316 25.0028C223.331 25.5994 224.119 26.4517 224.681 27.5597C225.244 28.6591 225.525 29.9716 225.525 31.4972V44H220.079V32.4688C220.088 31.267 219.781 30.3295 219.159 29.6562C218.537 28.9744 217.68 28.6335 216.589 28.6335C215.856 28.6335 215.208 28.7912 214.646 29.1065C214.092 29.4219 213.657 29.8821 213.342 30.4872C213.035 31.0838 212.877 31.804 212.869 32.6477ZM235.417 44.3707C234.164 44.3707 233.048 44.1534 232.067 43.7188C231.087 43.2756 230.312 42.6236 229.741 41.7628C229.178 40.8935 228.897 39.8111 228.897 38.5156C228.897 37.4247 229.097 36.5085 229.498 35.767C229.898 35.0256 230.444 34.429 231.134 33.9773C231.825 33.5256 232.609 33.1847 233.486 32.9545C234.373 32.7244 235.302 32.5625 236.273 32.4688C237.415 32.3494 238.336 32.2386 239.035 32.1364C239.734 32.0256 240.241 31.8636 240.556 31.6506C240.871 31.4375 241.029 31.1222 241.029 30.7045V30.6278C241.029 29.8182 240.773 29.1918 240.262 28.7486C239.759 28.3054 239.043 28.0838 238.114 28.0838C237.134 28.0838 236.354 28.3011 235.775 28.7358C235.195 29.1619 234.812 29.6989 234.624 30.3466L229.587 29.9375C229.843 28.7443 230.346 27.7131 231.096 26.8438C231.846 25.9659 232.813 25.2926 233.998 24.8239C235.191 24.3466 236.572 24.108 238.14 24.108C239.231 24.108 240.275 24.2358 241.272 24.4915C242.278 24.7472 243.168 25.1435 243.944 25.6804C244.728 26.2173 245.346 26.9077 245.798 27.7514C246.249 28.5866 246.475 29.5881 246.475 30.7557V44H241.31V41.277H241.157C240.842 41.8906 240.42 42.4318 239.891 42.9006C239.363 43.3608 238.728 43.723 237.986 43.9872C237.245 44.2429 236.388 44.3707 235.417 44.3707ZM236.977 40.6122C237.778 40.6122 238.485 40.4545 239.099 40.1392C239.712 39.8153 240.194 39.3807 240.543 38.8352C240.893 38.2898 241.067 37.6719 241.067 36.9815V34.8977C240.897 35.0085 240.663 35.1108 240.364 35.2045C240.075 35.2898 239.746 35.3707 239.38 35.4474C239.013 35.5156 238.647 35.5795 238.28 35.6392C237.914 35.6903 237.582 35.7372 237.283 35.7798C236.644 35.8736 236.086 36.0227 235.609 36.2273C235.131 36.4318 234.761 36.7088 234.496 37.0582C234.232 37.3991 234.1 37.8253 234.1 38.3366C234.1 39.0781 234.369 39.6449 234.905 40.0369C235.451 40.4205 236.141 40.6122 236.977 40.6122ZM259.547 51.7727C257.783 51.7727 256.27 51.5298 255.008 51.044C253.756 50.5668 252.758 49.9148 252.017 49.0881C251.276 48.2614 250.794 47.3324 250.572 46.3011L255.609 45.6236C255.763 46.0156 256.006 46.3821 256.338 46.723C256.67 47.0639 257.109 47.3366 257.655 47.5412C258.209 47.7543 258.882 47.8608 259.675 47.8608C260.859 47.8608 261.835 47.571 262.602 46.9915C263.378 46.4205 263.766 45.4616 263.766 44.1151V40.5227H263.535C263.297 41.0682 262.939 41.5838 262.462 42.0696C261.984 42.5554 261.371 42.9517 260.621 43.2585C259.871 43.5653 258.976 43.7188 257.936 43.7188C256.462 43.7188 255.119 43.3778 253.909 42.696C252.707 42.0057 251.749 40.9531 251.033 39.5384C250.325 38.1151 249.972 36.3168 249.972 34.1435C249.972 31.919 250.334 30.0611 251.058 28.5696C251.783 27.0781 252.746 25.9616 253.947 25.2202C255.158 24.4787 256.483 24.108 257.923 24.108C259.023 24.108 259.943 24.2955 260.685 24.6705C261.426 25.0369 262.023 25.4972 262.474 26.0511C262.935 26.5966 263.288 27.1335 263.535 27.6619H263.74V24.3636H269.148V44.1918C269.148 45.8622 268.739 47.2599 267.92 48.3849C267.102 49.5099 265.969 50.3537 264.52 50.9162C263.08 51.4872 261.422 51.7727 259.547 51.7727ZM259.662 39.6278C260.54 39.6278 261.281 39.4105 261.886 38.9759C262.5 38.5327 262.969 37.902 263.293 37.0838C263.625 36.2571 263.791 35.2685 263.791 34.1179C263.791 32.9673 263.629 31.9702 263.305 31.1264C262.981 30.2741 262.513 29.6136 261.899 29.1449C261.285 28.6761 260.54 28.4418 259.662 28.4418C258.767 28.4418 258.013 28.6847 257.399 29.1705C256.785 29.6477 256.321 30.3125 256.006 31.1648C255.69 32.017 255.533 33.0014 255.533 34.1179C255.533 35.2514 255.69 36.2315 256.006 37.0582C256.33 37.8764 256.794 38.5114 257.399 38.9631C258.013 39.4062 258.767 39.6278 259.662 39.6278ZM282.43 44.3835C280.41 44.3835 278.672 43.9744 277.214 43.1562C275.766 42.3295 274.649 41.1619 273.865 39.6534C273.081 38.1364 272.689 36.3423 272.689 34.2713C272.689 32.2514 273.081 30.4787 273.865 28.9531C274.649 27.4276 275.753 26.2386 277.176 25.3864C278.608 24.5341 280.287 24.108 282.213 24.108C283.508 24.108 284.714 24.3168 285.831 24.7344C286.956 25.1435 287.936 25.7614 288.771 26.5881C289.615 27.4148 290.271 28.4545 290.74 29.7074C291.209 30.9517 291.443 32.4091 291.443 34.0795V35.5753H274.862V32.2003H286.317C286.317 31.4162 286.146 30.7216 285.805 30.1165C285.464 29.5114 284.991 29.0384 284.386 28.6974C283.79 28.348 283.095 28.1733 282.303 28.1733C281.476 28.1733 280.743 28.3651 280.104 28.7486C279.473 29.1236 278.979 29.6307 278.621 30.2699C278.263 30.9006 278.08 31.6037 278.071 32.3793V35.5881C278.071 36.5597 278.25 37.3991 278.608 38.1065C278.974 38.8139 279.49 39.3594 280.155 39.7429C280.82 40.1264 281.608 40.3182 282.52 40.3182C283.125 40.3182 283.679 40.233 284.182 40.0625C284.685 39.892 285.115 39.6364 285.473 39.2955C285.831 38.9545 286.104 38.5369 286.291 38.0426L291.328 38.375C291.072 39.5852 290.548 40.642 289.756 41.5455C288.972 42.4403 287.957 43.1392 286.713 43.642C285.477 44.1364 284.05 44.3835 282.43 44.3835ZM294.997 44V24.3636H300.277V27.7898H300.481C300.839 26.571 301.44 25.6506 302.284 25.0284C303.128 24.3977 304.099 24.0824 305.199 24.0824C305.472 24.0824 305.766 24.0994 306.081 24.1335C306.396 24.1676 306.673 24.2145 306.912 24.2741V29.1065C306.656 29.0298 306.303 28.9616 305.851 28.902C305.399 28.8423 304.986 28.8125 304.611 28.8125C303.81 28.8125 303.094 28.9872 302.463 29.3366C301.841 29.6776 301.347 30.1548 300.98 30.7685C300.622 31.3821 300.443 32.0895 300.443 32.8906V44H294.997Z" fill="black"/>
</svg>
