<svg width="22" height="22" viewBox="0 0 22 22" fill="none" xmlns="http://www.w3.org/2000/svg">
<rect x="0.75" y="-0.75" width="8.5" height="6.5" rx="1" transform="matrix(1 0 0 -1 0 6.5)" stroke="#3B82F6" stroke-width="1.5" stroke-linejoin="round"/>
<rect x="0.75" y="-0.75" width="8.5" height="6.5" rx="1" transform="matrix(1 0 0 -1 12 6.5)" stroke="#3B82F6" stroke-width="1.5" stroke-linejoin="round"/>
<rect x="0.75" y="-0.75" width="8.5" height="6.5" rx="1" transform="matrix(1 0 0 -1 6 20.5)" stroke="#3B82F6" stroke-width="1.5" stroke-linejoin="round"/>
<path d="M6 11L16 11" stroke="#3B82F6" stroke-width="1.25" stroke-linecap="square"/>
<line y1="-0.625" x2="4" y2="-0.625" transform="matrix(0 1 1 0 12 11)" stroke="#3B82F6" stroke-width="1.25"/>
<path d="M17 8L17 10.5C17 10.7761 16.7761 11 16.5 11L16 11" stroke="#3B82F6" stroke-width="1.25" stroke-linecap="round"/>
<path d="M4.89999 8L4.89998 10.5C4.89998 10.7761 5.12384 11 5.39998 11L5.89999 11" stroke="#3B82F6" stroke-width="1.25" stroke-linecap="round"/>
</svg>
