<svg xmlns="http://www.w3.org/2000/svg" viewBox="0 0 64 64" fill="none" stroke="#16a34a" stroke-width="2.2" stroke-linecap="round" stroke-linejoin="round">
  <path d="M11 24c2-5 7-8 13-9" />
  <path d="M53 24c-2-5-7-8-13-9" />
  <path d="M16 20 8 16c-1 4 1 8 5 11" />
  <path d="M48 20 56 16c1 4-1 8-5 11" />
  <path d="M24 16h16c3 0 5 2 5 5" />
  <path d="M24 16c-3 0-5 2-5 5" />
  <path d="M19 27v15c0 6 4 10 9 10h8c5 0 9-4 9-10V27" />
  <rect x="24" y="48" width="16" height="8" rx="4" ry="4" />
  <path d="M26 44c0-2 2-4 4-4" />
  <path d="M38 44c0-2-2-4-4-4" />
</svg>
