<svg width="22" height="18" viewBox="0 0 22 18" fill="none" xmlns="http://www.w3.org/2000/svg">
<path d="M13.9549 15.25C15.8849 14.5 15.8849 12.5 15.8849 5.00002" stroke="#296436" stroke-linecap="round"/>
<path d="M10.8849 11.75H13.0799" stroke="#296436"/>
<path d="M10.8849 15.755H13.1549" stroke="#296436"/>
<path d="M13.0799 15.75C14.4132 15.75 14.4132 11.75 13.0799 11.75" stroke="#296436"/>
<path d="M13.8849 15.5C13.8849 17.5 11.8849 17.5 10.8849 17.5" stroke="#296436"/>
<path d="M7.8849 15.5C7.8849 17.5 9.88488 17.5 10.8849 17.5" stroke="#296436"/>
<path d="M14.4549 3.25002C14.8849 3.50002 18.8849 1.00002 19.3849 0.500015" stroke="#296436" stroke-linecap="round"/>
<path d="M15.8849 5.00002C16.9429 4.55807 19.3149 1.75001 19.3849 0.500013" stroke="#296436" stroke-linecap="round"/>
<path d="M15.8849 7.31001C15.8849 9.77492 19.7949 11.7905 21.6349 11.2749" stroke="#296436"/>
<path d="M20.9549 11.2824C20.9549 7.78245 17.7549 6.33588 15.4549 6.85139" stroke="#296436"/>
<path d="M14.701 3.25002C14.701 3.52616 14.4771 3.75002 14.201 3.75002C13.9248 3.75002 13.701 3.52616 13.701 3.25002H14.201H14.701ZM10.8849 2.00002V1.50002C11.6345 1.50002 12.2311 1.507 12.7001 1.53651C13.1608 1.5655 13.5437 1.61816 13.8437 1.73078C14.1696 1.85313 14.4194 2.05525 14.5609 2.37055C14.6848 2.64659 14.701 2.96191 14.701 3.25002H14.201H13.701C13.701 2.96994 13.6777 2.84492 13.6486 2.78005C13.6371 2.75444 13.6203 2.71509 13.4922 2.66698C13.3382 2.60915 13.0795 2.56237 12.6373 2.53454C12.2032 2.50723 11.6353 2.50002 10.8849 2.50002V2.00002Z" fill="#296436"/>
<circle cx="0.5" cy="0.5" r="0.5" transform="matrix(-1 0 0 1 12.9549 13.25)" fill="#296436"/>
<path d="M7.81487 15.25C5.88489 14.5 5.88489 12.5 5.88489 5.00002" stroke="#296436" stroke-linecap="round"/>
<path d="M10.8849 11.75H8.68988" stroke="#296436"/>
<path d="M10.8849 15.755H8.61488" stroke="#296436"/>
<path d="M8.68988 15.75C7.35654 15.75 7.35655 11.75 8.68988 11.75" stroke="#296436"/>
<path d="M7.31488 3.25002C6.88489 3.50002 2.88488 1.00002 2.38489 0.500015" stroke="#296436" stroke-linecap="round"/>
<path d="M5.88489 5.00002C4.82683 4.55807 2.4549 1.75001 2.38489 0.500013" stroke="#296436" stroke-linecap="round"/>
<path d="M5.88489 7.31001C5.88489 9.77492 1.97487 11.7905 0.134888 11.2749" stroke="#296436"/>
<path d="M0.81488 11.2824C0.81488 7.78245 4.01492 6.33588 6.3149 6.85139" stroke="#296436"/>
<path d="M7.06879 3.25002C7.06879 3.52616 7.29264 3.75002 7.56879 3.75002C7.84493 3.75002 8.06879 3.52616 8.06879 3.25002H7.56879H7.06879ZM10.8849 2.00002V1.50002C10.1353 1.50002 9.53871 1.507 9.06972 1.53651C8.60896 1.5655 8.22609 1.61816 7.9261 1.73078C7.60022 1.85313 7.35042 2.05525 7.2089 2.37055C7.085 2.64659 7.06879 2.96191 7.06879 3.25002H7.56879H8.06879C8.06879 2.96994 8.09209 2.84492 8.12121 2.78005C8.1327 2.75444 8.14943 2.71509 8.27758 2.66698C8.43161 2.60915 8.69027 2.56237 9.13252 2.53454C9.56655 2.50723 10.1345 2.50002 10.8849 2.50002V2.00002Z" fill="#296436"/>
<circle cx="9.31488" cy="13.75" r="0.5" fill="#296436"/>
</svg>
