<svg width="24" height="24" viewBox="0 0 24 24" fill="none" xmlns="http://www.w3.org/2000/svg">
<path d="M9.25 17.75H10.5V20.25H9.25V19V17.75ZM1.25 20.25C0.559644 20.25 0 19.6904 0 19C0 18.3096 0.559644 17.75 1.25 17.75V19V20.25ZM9.25 19V20.25H1.25V19V17.75H9.25V19Z" fill="black"/>
<path d="M21.25 20.25H20V17.75H21.25V19V20.25ZM22.25 17.75C22.9404 17.75 23.5 18.3096 23.5 19C23.5 19.6904 22.9404 20.25 22.25 20.25V19V17.75ZM21.25 19V17.75H22.25V19V20.25H21.25V19Z" fill="black"/>
<circle cx="5" cy="5" r="3.75" transform="matrix(-1 0 0 1 20.25 14)" stroke="black" stroke-width="2.5"/>
<path d="M14.25 3.75H13V6.25H14.25V5V3.75ZM22.25 6.25C22.9404 6.25 23.5 5.69036 23.5 5C23.5 4.30964 22.9404 3.75 22.25 3.75V5V6.25ZM14.25 5V6.25H22.25V5V3.75H14.25V5Z" fill="black"/>
<path d="M2.25 6.25H3.5V3.75H2.25L2.25 5L2.25 6.25ZM1.25 3.75C0.559644 3.75 0 4.30964 0 5C0 5.69036 0.559644 6.25 1.25 6.25V5L1.25 3.75ZM2.25 5L2.25 3.75H1.25L1.25 5V6.25H2.25L2.25 5Z" fill="black"/>
<circle cx="8.25" cy="5" r="3.75" stroke="black" stroke-width="2.5"/>
</svg>
