<svg width="22" height="19" viewBox="0 0 22 19" fill="none" xmlns="http://www.w3.org/2000/svg">
<path d="M16.25 17.2502C22.25 13.7502 22.25 4.7502 16.25 1.2502" stroke="black" stroke-width="1.5" stroke-linecap="round"/>
<path d="M16.25 17.2502V15.7502" stroke="black" stroke-width="1.5" stroke-linecap="round"/>
<path d="M17.75 17.7502L16.25 17.2502" stroke="black" stroke-width="1.5" stroke-linecap="round"/>
<path d="M5.25 1.2502C-0.75 4.7502 -0.75 13.7502 5.25 17.2502" stroke="black" stroke-width="1.5" stroke-linecap="round"/>
<path d="M5.25 1.2502V2.7502" stroke="black" stroke-width="1.5" stroke-linecap="round"/>
<path d="M3.75 0.750198L5.25 1.2502" stroke="black" stroke-width="1.5" stroke-linecap="round"/>
<path d="M9.13574 5.0002H12.3643C12.4656 5.00039 12.5574 5.0616 12.5957 5.15547L13.833 8.18867C13.9432 8.45861 14 8.74771 14 9.03926V15.2502C14 15.3883 13.8881 15.5002 13.75 15.5002H7.75C7.61193 15.5002 7.5 15.3883 7.5 15.2502V9.03926C7.5 8.74771 7.55682 8.45861 7.66699 8.18867L8.9043 5.15547C8.94264 5.0616 9.03437 5.00039 9.13574 5.0002Z" stroke="black" stroke-width="1.5" stroke-linejoin="round"/>
<path d="M8.25 3.2502C8.25 2.97406 8.47386 2.7502 8.75 2.7502H12.75C13.0261 2.7502 13.25 2.97406 13.25 3.2502V4.2502C13.25 4.52634 13.0261 4.7502 12.75 4.7502H8.75C8.47386 4.7502 8.25 4.52634 8.25 4.2502V3.2502Z" stroke="black" stroke-width="1.5"/>
<path d="M7.75 9.75022C9.75 12.2502 11.75 8.2502 13.75 9.25021" stroke="black" stroke-width="1.5" stroke-linecap="round"/>
</svg>
