<svg width="22" height="22" viewBox="0 0 22 22" fill="none" xmlns="http://www.w3.org/2000/svg">
<rect x="3.11218" y="14" width="3" height="7" rx="1" stroke="black"/>
<rect x="8.11218" y="10" width="3" height="11" rx="1" stroke="black"/>
<rect x="13.1122" y="7" width="3" height="14" rx="1" stroke="black"/>
<circle cx="18.1122" cy="3" r="2.5" stroke="black"/>
<path d="M18.0165 4.86328V4.53711C17.6975 4.52018 17.4436 4.43164 17.2548 4.27148C17.066 4.11133 16.9677 3.88281 16.9598 3.58594H17.5555C17.5647 3.71484 17.6109 3.81576 17.6942 3.88867C17.7775 3.96029 17.885 4.00391 18.0165 4.01953V3.27344L17.829 3.22656C17.5842 3.16797 17.3908 3.07487 17.2489 2.94727C17.1083 2.81836 17.038 2.64648 17.038 2.43164C17.038 2.26758 17.0796 2.1224 17.163 1.99609C17.2463 1.86979 17.3615 1.76823 17.5087 1.69141C17.6558 1.61458 17.8251 1.56901 18.0165 1.55469V1.22656H18.2489V1.55469C18.4442 1.56771 18.6141 1.61263 18.7587 1.68945C18.9045 1.76497 19.0178 1.86654 19.0985 1.99414C19.1792 2.12044 19.2209 2.26432 19.2235 2.42578H18.6298C18.6102 2.22135 18.4833 2.10352 18.2489 2.07227V2.7793L18.3876 2.81445C18.5568 2.85221 18.7072 2.90755 18.8387 2.98047C18.9703 3.05208 19.0738 3.14453 19.1493 3.25781C19.2248 3.36979 19.2626 3.50651 19.2626 3.66797C19.2626 3.92057 19.1734 4.12435 18.995 4.2793C18.8166 4.43424 18.5679 4.52018 18.2489 4.53711V4.86328H18.0165ZM17.6688 2.39258C17.6688 2.47982 17.702 2.54883 17.7684 2.59961C17.8348 2.65039 17.9175 2.69076 18.0165 2.7207V2.07227C17.9045 2.08789 17.8186 2.125 17.7587 2.18359C17.6988 2.24219 17.6688 2.31185 17.6688 2.39258ZM18.6434 3.66602C18.6434 3.57878 18.6089 3.51042 18.5399 3.46094C18.4722 3.41016 18.3752 3.36719 18.2489 3.33203V4.01758C18.37 4.00065 18.4657 3.96094 18.536 3.89844C18.6076 3.83594 18.6434 3.75846 18.6434 3.66602Z" fill="black"/>
<path d="M0.493166 15.5L2.97135 12.2148C3.27645 11.8104 3.83204 11.7131 4.25092 11.9907C4.68134 12.276 5.2535 12.1645 5.55178 11.7372L8.09846 8.08925C8.39176 7.66913 8.9461 7.54371 9.38458 7.79828L9.64627 7.95021C10.0803 8.20219 10.6287 8.08212 10.9245 7.67036L11.7777 6.48271L13.1489 4.57387" stroke="black" stroke-linecap="round"/>
<path d="M12.106 4.2135L13.6102 4.09718" stroke="black" stroke-linecap="round"/>
<path d="M13.7272 5.59265L13.6102 4.09722" stroke="black" stroke-linecap="round"/>
</svg>
