<svg xmlns="http://www.w3.org/2000/svg" viewBox="0 0 64 64" fill="none" stroke="#16a34a" stroke-width="2.2" stroke-linecap="round" stroke-linejoin="round">
  <path d="M18 24c0-8 6-14 14-14s14 6 14 14" />
  <path d="M20 17 14 12v7l4 4" />
  <path d="M44 17 50 12v7l-4 4" />
  <path d="M19 27v10c0 9 6 15 13 15s13-6 13-15V27" />
  <path d="M24 31c1 2 3 3 5 3" />
  <path d="M40 31c-1 2-3 3-5 3" />
  <ellipse cx="32" cy="41" rx="8" ry="6" />
  <circle cx="29" cy="41" r="1.3" fill="currentColor" stroke="none" />
  <circle cx="35" cy="41" r="1.3" fill="currentColor" stroke="none" />
  <path d="M29 47c1 1 2 1.5 3 1.5s2-.5 3-1.5" />
</svg>
