<svg xmlns="http://www.w3.org/2000/svg" viewBox="0 0 512 512"><path d="M240 419L242 425L248 428L267 427L270 425L272 421L270 414L267 412L246 412L241 416Z" fill-rule="evenodd"/><path d="M287 331L278 334L273 339L271 345L271 350L275 358L284 363L290 363L298 359L303 349L303 345L300 338L296 334Z" fill-rule="evenodd"/><path d="M222 331L215 333L211 336L207 344L207 351L213 360L219 363L226 363L231 361L236 356L238 352L238 342L232 334Z" fill-rule="evenodd"/><path d="M246 276L232 279L213 287L200 296L186 311L180 320L171 341L168 356L168 375L173 389L185 401L195 423L214 444L221 449L238 457L246 459L265 459L279 455L290 449L311 430L318 420L324 408L326 400L337 390L341 382L343 375L343 355L337 332L330 318L323 308L311 296L298 287L279 279L265 276Z M204 407L233 406L244 404L307 406L298 421L284 434L274 440L259 444L246 443L235 439L227 434L212 420Z M186 345L198 321L209 309L220 301L230 296L245 292L266 292L281 296L291 301L301 308L313 321L325 345L327 353L328 371L325 380L320 385L306 390L280 390L265 388L263 377L258 372L253 372L248 377L248 387L246 389L226 391L200 390L190 385L187 382L184 375L183 365Z" fill-rule="evenodd"/><path d="M3 21L0 25L0 31L8 63L16 87L32 124L48 149L62 163L70 168L82 172L95 172L105 169L127 155L129 156L128 165L122 184L88 261L79 290L73 323L72 360L75 380L82 402L89 416L100 432L122 453L139 464L157 473L195 485L236 491L275 491L294 489L324 483L356 472L377 461L395 448L414 428L422 416L431 397L438 370L439 334L436 308L428 276L418 248L389 184L384 169L382 156L384 155L406 169L416 172L429 172L441 168L449 163L463 149L479 124L495 87L510 36L510 23L506 20L487 22L448 31L422 40L392 55L375 67L342 95L323 105L280 100L231 100L188 105L169 95L128 61L98 44L84 38L48 27L12 20Z M19 37L55 45L77 52L98 61L122 77L131 86L141 102L146 122L146 142L150 146L157 146L161 142L161 116L159 110L160 108L186 121L194 121L213 117L253 115L286 116L306 118L317 121L325 121L351 108L352 110L350 116L350 142L354 146L361 146L365 142L365 122L370 102L380 86L389 77L413 61L434 52L467 42L492 37L493 38L486 65L470 107L454 135L440 150L432 155L421 157L409 153L397 144L389 140L382 139L372 143L367 151L367 164L370 177L380 203L399 243L411 274L419 303L423 328L423 364L418 387L411 404L406 412L388 433L363 451L349 458L327 466L289 474L249 476L209 472L177 464L164 459L138 445L125 435L114 424L100 404L91 380L87 348L88 328L92 303L99 277L112 243L138 186L143 170L145 155L139 143L129 139L122 140L114 144L102 153L90 157L79 155L71 150L60 139L51 126L38 100L24 62L18 40Z" fill-rule="evenodd"/></svg>