<svg width="22" height="18" viewBox="0 0 22 18" fill="none" xmlns="http://www.w3.org/2000/svg">
<circle cx="0.5" cy="0.5" r="0.5" transform="matrix(-1 0 0 1 12.9 11.5)" fill="#FF7F7F"/>
<path d="M0.5 1C0.500001 4.5 3 6.5 6.5 5.5" stroke="#FF7F7F"/>
<path d="M7 4C7.5 0.5 1.5 0.5 -4.76837e-07 0.5" stroke="#FF7F7F"/>
<path d="M21.3 1C21.3 4.5 18.8 6.5 15.3 5.5" stroke="#FF7F7F"/>
<path d="M14.7995 4C14.2995 0.5 20.2995 0.5 21.7995 0.5" stroke="#FF7F7F"/>
<circle cx="9.4" cy="12" r="0.5" fill="#FF7F7F"/>
<path d="M10.9003 17C15.5882 16.9999 17.8339 13.1874 16.9208 10.1436C16.5392 8.87169 16.2357 7.74363 15.9081 6.71387C15.5832 5.69275 15.252 4.82862 14.8426 4.12695C14.4368 3.43134 13.9626 2.90966 13.3534 2.55762C12.7435 2.20523 11.9595 2.00003 10.9003 2C9.83353 2 9.04645 2.20624 8.43542 2.55859C7.82528 2.91047 7.35113 3.43074 6.94714 4.12598C6.5396 4.82739 6.21138 5.69157 5.88854 6.71289C5.56237 7.74483 5.26107 8.86926 4.87878 10.1436C3.96561 13.1874 6.21216 17 10.9003 17Z" stroke="#FF7F7F"/>
<path d="M10.9 9C12.8978 9 14.4 10.4038 14.4 12C14.4 13.5962 12.8978 15 10.9 15C8.9022 15 7.4 13.5962 7.4 12C7.4 10.4038 8.9022 9 10.9 9Z" stroke="#FF7F7F"/>
</svg>
