<svg width="20" height="18" viewBox="0 0 20 18" fill="none" xmlns="http://www.w3.org/2000/svg">
<circle cx="0.5" cy="0.5" r="0.5" transform="matrix(-1 0 0 1 12 12)" fill="black"/>
<path d="M0.5 1C0.500001 4.5 2 5.5 5.5 5" stroke="black"/>
<path d="M6 3.5C5 0.5 1.5 0.5 9.53674e-07 0.5" stroke="black"/>
<path d="M19.5 1C19.5 4.5 18 5.5 14.5 5" stroke="black"/>
<path d="M14 3.5C15 0.5 18.5 0.5 20 0.5" stroke="black"/>
<circle cx="8.5" cy="12.5" r="0.5" fill="black"/>
<path d="M10.0003 2C11.1794 2.00004 12.0423 2.24613 12.6917 2.6377C13.3402 3.02877 13.8122 3.58699 14.1741 4.27246C14.9178 5.68145 15.1539 7.51755 15.5091 9.37207C15.9964 11.9173 15.598 13.3843 14.7151 14.2383C13.8018 15.1217 12.2277 15.5 10.0003 15.5C7.75801 15.5 6.18514 15.1208 5.27567 14.2383C4.39641 13.385 4.0038 11.9191 4.49149 9.37207C4.84661 7.51755 5.08181 5.68145 5.82548 4.27246C6.18729 3.58702 6.65944 3.0288 7.3079 2.6377C7.95735 2.2461 8.82105 2 10.0003 2Z" stroke="black"/>
<path d="M10 9C12.5098 9 14.5 10.9266 14.5 13.25C14.5 15.5734 12.5098 17.5 10 17.5C7.49024 17.5 5.5 15.5734 5.5 13.25C5.5 10.9266 7.49024 9 10 9Z" stroke="black"/>
</svg>
